<svg xmlns="http://www.w3.org/2000/svg" width="22.106" height="22.106" viewBox="0 0 22.106 22.106">
  <path id="phone-call" d="M14.5,4.823A4.783,4.783,0,0,1,18.282,8.6M14.5,1a8.609,8.609,0,0,1,7.612,7.588m-.957,7.626v2.867a1.914,1.914,0,0,1-2.087,1.911A18.972,18.972,0,0,1,10.8,18.058a18.653,18.653,0,0,1-5.745-5.734A18.889,18.889,0,0,1,2.12,4.039,1.913,1.913,0,0,1,4.025,1.956H6.9A1.914,1.914,0,0,1,8.812,3.6a12.251,12.251,0,0,0,.67,2.685A1.909,1.909,0,0,1,9.052,8.3L7.836,9.515a15.305,15.305,0,0,0,5.745,5.734L14.8,14.035a1.918,1.918,0,0,1,2.02-.43,12.313,12.313,0,0,0,2.691.669,1.912,1.912,0,0,1,1.647,1.94Z" transform="translate(-1.111 0.104)" fill="none" stroke="#2ebfaf" stroke-linecap="round" stroke-linejoin="round" stroke-width="2"/>
</svg>
