<svg display="none" xmlns="http://www.w3.org/2000/svg">

    <symbol id="userIcon" viewBox="0 0 12 14">
        <g>
            <path d="M90.57,6.727a3.515,3.515,0,0,0,2.5-.985,3.176,3.176,0,0,0,1.036-2.378A3.176,3.176,0,0,0,93.071.985a3.668,3.668,0,0,0-5,0,3.176,3.176,0,0,0-1.037,2.378,3.176,3.176,0,0,0,1.037,2.378A3.516,3.516,0,0,0,90.57,6.727ZM88.677,1.564a2.775,2.775,0,0,1,3.786,0,2.373,2.373,0,0,1,.784,1.8,2.373,2.373,0,0,1-.784,1.8,2.775,2.775,0,0,1-3.786,0,2.373,2.373,0,0,1-.785-1.8,2.373,2.373,0,0,1,.785-1.8Zm0,0" transform="translate(-84.658 0)" fill="currentColor"/>
            <path d="M11.971,251.309a8.079,8.079,0,0,0-.117-.882,6.786,6.786,0,0,0-.224-.887,4.319,4.319,0,0,0-.376-.827,3.131,3.131,0,0,0-.566-.717,2.51,2.51,0,0,0-.814-.5,2.887,2.887,0,0,0-1.039-.182,1.072,1.072,0,0,0-.563.232c-.169.107-.366.23-.587.367a3.414,3.414,0,0,1-.759.325,3.031,3.031,0,0,1-1.857,0,3.4,3.4,0,0,1-.758-.325c-.218-.135-.416-.259-.587-.367a1.071,1.071,0,0,0-.563-.232,2.883,2.883,0,0,0-1.039.183,2.507,2.507,0,0,0-.814.5,3.132,3.132,0,0,0-.566.717,4.326,4.326,0,0,0-.376.828,6.8,6.8,0,0,0-.223.887,8.025,8.025,0,0,0-.117.883c-.019.267-.029.544-.029.825a2.284,2.284,0,0,0,.709,1.754,2.6,2.6,0,0,0,1.828.647H9.463a2.6,2.6,0,0,0,1.828-.647A2.283,2.283,0,0,0,12,252.134c0-.281-.01-.559-.029-.825ZM10.709,253.3a1.75,1.75,0,0,1-1.247.422H2.537A1.75,1.75,0,0,1,1.29,253.3a1.49,1.49,0,0,1-.448-1.162c0-.262.009-.52.027-.768a7.237,7.237,0,0,1,.105-.795,6,6,0,0,1,.2-.782,3.522,3.522,0,0,1,.306-.673,2.322,2.322,0,0,1,.416-.53,1.665,1.665,0,0,1,.541-.327,1.991,1.991,0,0,1,.664-.124c.03.015.082.044.167.1.173.11.373.235.594.372a4.236,4.236,0,0,0,.953.413,3.9,3.9,0,0,0,2.375,0,4.243,4.243,0,0,0,.953-.414c.226-.14.42-.262.593-.371.085-.054.138-.083.167-.1a1.992,1.992,0,0,1,.664.124,1.667,1.667,0,0,1,.541.327,2.315,2.315,0,0,1,.416.53,3.512,3.512,0,0,1,.306.673,5.984,5.984,0,0,1,.2.782,7.3,7.3,0,0,1,.105.795h0c.018.247.027.505.027.768a1.49,1.49,0,0,1-.448,1.161Zm0,0" transform="translate(0 -240.535)" fill="currentColor"/>
        </g>
    </symbol>

    <symbol id="arrowDown" viewBox="0 0 8.486 8.486">
        <g transform="translate(0 4.243) rotate(-45)">
            <path d="M.5,6A.5.5,0,0,1,0,5.5V.5a.5.5,0,1,1,1,0V5H5.5a.5.5,0,1,1,0,1Z" stroke="none"/>
            <path d="M 5.499899864196777 6.00029993057251 L 0.5003999471664429 6.00029993057251 C 0.2240999639034271 6.00029993057251 -3.471374654395731e-08 5.776199817657471 -3.471374654395731e-08 5.499899864196777 L -3.471374654395731e-08 0.5003999471664429 C -3.471374654395731e-08 0.2240999639034271 0.2240999639034271 -3.471374654395731e-08 0.5003999471664429 -3.471374654395731e-08 C 0.7757999897003174 -3.471374654395731e-08 0.9998999834060669 0.2240999639034271 0.9998999834060669 0.5003999471664429 L 0.9998999834060669 5.000400066375732 L 5.499899864196777 5.000400066375732 C 5.776199817657471 5.000400066375732 6.00029993057251 5.224500179290771 6.00029993057251 5.499899864196777 C 6.00029993057251 5.776199817657471 5.776199817657471 6.00029993057251 5.499899864196777 6.00029993057251 Z" stroke="none" fill="currentColor"/>
        </g>
    </symbol>

    <symbol id="search" viewBox="0 0 24 24">
        <g>
            <path fill="currentColor" d="M9.5,3A6.5,6.5 0 0,1 16,9.5C16,11.11 15.41,12.59 14.44,13.73L14.71,14H15.5L20.5,19L19,20.5L14,15.5V14.71L13.73,14.44C12.59,15.41 11.11,16 9.5,16A6.5,6.5 0 0,1 3,9.5A6.5,6.5 0 0,1 9.5,3M9.5,5C7,5 5,7 5,9.5C5,12 7,14 9.5,14C12,14 14,12 14,9.5C14,7 12,5 9.5,5Z" />
        </g>
    </symbol>

    <symbol id="orderBox" viewBox="0 0 22 20">
        <g transform="translate(0 -15.499)">
            <g transform="translate(0 15.499)">
                <path d="M19.513,22.36l2.376-3.392a.606.606,0,0,0,.077-.551.635.635,0,0,0-.407-.391l-7.777-2.495a.656.656,0,0,0-.739.246L11,18.741,8.959,15.777a.656.656,0,0,0-.739-.246L.442,18.026a.635.635,0,0,0-.407.391.607.607,0,0,0,.077.551L2.487,22.36.111,25.752a.607.607,0,0,0-.077.551.635.635,0,0,0,.407.391l2.179.7v4.987a.626.626,0,0,0,.441.592l7.732,2.494a.665.665,0,0,0,.413,0l7.732-2.494a.626.626,0,0,0,.441-.592V27.393l2.179-.7a.635.635,0,0,0,.407-.391.607.607,0,0,0-.077-.551Zm-5.671-5.5,6.5,2.086-1.869,2.668L12,19.532ZM1.657,18.95l6.5-2.086L10,19.532l-6.47,2.087Zm0,6.819L3.526,23.1,10,25.188,8.159,27.855Zm8.7,8.241L3.911,31.931V27.807L8.22,29.189a.656.656,0,0,0,.739-.246l1.4-2.028ZM11,24.2,5.3,22.36,11,20.522l5.7,1.837Zm7.09,7.734L11.645,34.01v-7.1l1.4,2.028a.656.656,0,0,0,.739.246l4.309-1.382Zm-4.248-4.076L12,25.188l6.47-2.087,1.869,2.668Z" transform="translate(0 -15.499)" fill="#currentColor"/>
            </g>
        </g>
    </symbol>

    <symbol id="heart" viewBox="0 0 22.5 20.5">
        <g transform="translate(0.25 -29.586)">
            <g transform="translate(0 29.836)">
                <path d="M20.395,31.8a5.45,5.45,0,0,0-8.847.655,8.729,8.729,0,0,0-.548.914,8.721,8.721,0,0,0-.548-.914,5.556,5.556,0,0,0-4.609-2.62A5.508,5.508,0,0,0,1.605,31.8,6.982,6.982,0,0,0,0,36.358a8.532,8.532,0,0,0,2.249,5.514,50.687,50.687,0,0,0,5.629,5.412c.851.747,1.732,1.519,2.669,2.362l.028.025a.631.631,0,0,0,.849,0l.028-.025c.937-.844,1.818-1.616,2.669-2.362a50.68,50.68,0,0,0,5.629-5.412A8.532,8.532,0,0,0,22,36.358,6.982,6.982,0,0,0,20.395,31.8ZM13.286,46.274c-.734.644-1.489,1.306-2.286,2.018-.8-.712-1.552-1.375-2.286-2.018-4.471-3.921-7.425-6.511-7.425-9.916a5.636,5.636,0,0,1,1.283-3.681,4.251,4.251,0,0,1,3.272-1.515A4.325,4.325,0,0,1,9.4,33.223a7.96,7.96,0,0,1,.987,2.019.639.639,0,0,0,1.226,0,7.961,7.961,0,0,1,.987-2.019,4.325,4.325,0,0,1,3.557-2.06,4.251,4.251,0,0,1,3.272,1.515,5.636,5.636,0,0,1,1.283,3.681C20.711,39.763,17.757,42.354,13.286,46.274Z" transform="translate(0 -29.836)" fill="currentColor" stroke="currentColor" stroke-width="0.5"/>
            </g>
        </g>
    </symbol>

    <symbol id="cart" viewBox="0 0 20.506 20.5">
        <g transform="translate(0.25 -5.778)">
            <g transform="translate(0 6.028)">
                <g transform="translate(0 0)">
                    <path d="M98.894,350.322a2.241,2.241,0,1,0,2.241,2.241A2.241,2.241,0,0,0,98.894,350.322Zm0,3.486a1.245,1.245,0,1,1,1.245-1.245A1.245,1.245,0,0,1,98.894,353.808Z" transform="translate(-92.444 -334.804)" fill="currentColor" stroke="currentColor" stroke-width="0.5"/>
                    <path d="M297.425,350.322a2.241,2.241,0,1,0,2.241,2.241A2.241,2.241,0,0,0,297.425,350.322Zm0,3.486a1.245,1.245,0,1,1,1.245-1.245A1.245,1.245,0,0,1,297.425,353.808Z" transform="translate(-282.581 -334.804)" fill="currentColor" stroke="currentColor" stroke-width="0.5"/>
                    <path d="M19.905,9.169a.578.578,0,0,0-.371-.188L4.431,8.77,4.014,7.481a2.136,2.136,0,0,0-2-1.453H.464a.469.469,0,0,0,0,.938H2.018a1.208,1.208,0,0,1,1.114.82l2.946,8.977-.232.539a2.27,2.27,0,0,0,.209,2.039,2.153,2.153,0,0,0,1.74.984H16.82a.469.469,0,0,0,0-.938H7.8a1.181,1.181,0,0,1-.974-.563A1.3,1.3,0,0,1,6.7,17.7l.186-.422,9.767-1.031a2.561,2.561,0,0,0,2.2-1.969l1.114-4.711A.4.4,0,0,0,19.905,9.169Zm-1.949,4.9a1.583,1.583,0,0,1-1.415,1.242L6.89,16.318,4.733,9.708l14.221.211Z" transform="translate(0 -6.028)" fill="currentColor" stroke="currentColor" stroke-width="0.5"/>
                </g>
            </g>
        </g>
    </symbol>

    <symbol id="category" viewBox="0 0 16 12">
        <g>
            <path d="M-27,11a1,1,0,0,1-1-1,1,1,0,0,1,1-1h14a1,1,0,0,1,1,1,1,1,0,0,1-1,1Zm0-5a1,1,0,0,1-1-1,1,1,0,0,1,1-1h10a1,1,0,0,1,1,1,1,1,0,0,1-1,1Zm0-5a1,1,0,0,1-1-1,1,1,0,0,1,1-1h14a1,1,0,0,1,1,1,1,1,0,0,1-1,1Z" transform="translate(28 1)" fill="currentColor"/>
        </g>
    </symbol>

    <symbol id="itemStar" viewBox="0 0 20 20">
        <g>
            <path d="M19.947,8.053a1.072,1.072,0,0,0-.914-.762L13.26,6.744,10.978,1.17a1.047,1.047,0,0,0-1.956,0L6.741,6.744.966,7.291a1.075,1.075,0,0,0-.914.762,1.142,1.142,0,0,0,.31,1.179l4.364,3.993L3.44,19.139a1.134,1.134,0,0,0,.413,1.145,1.024,1.024,0,0,0,1.168.054L10,17.233l4.977,3.106a1.026,1.026,0,0,0,1.169-.054,1.134,1.134,0,0,0,.413-1.145l-1.287-5.914,4.364-3.993A1.142,1.142,0,0,0,19.947,8.053ZM10.1,17.172" transform="translate(0 -0.496)" fill="currentColor"/>
        </g>
    </symbol>

    <symbol id="instagram" viewBox="0 0 14 14">
        <g>
            <g id="instagram" transform="translate(-0.449 0)">
                <path d="M14.413,4.116a5.115,5.115,0,0,0-.325-1.7A3.587,3.587,0,0,0,12.039.369a5.131,5.131,0,0,0-1.7-.325C9.59.008,9.352,0,7.451,0S5.312.008,4.565.041a5.119,5.119,0,0,0-1.7.325,3.417,3.417,0,0,0-1.242.81A3.447,3.447,0,0,0,.818,2.415a5.128,5.128,0,0,0-.325,1.7C.457,4.863.449,5.1.449,7S.457,9.14.49,9.887a5.115,5.115,0,0,0,.326,1.7,3.586,3.586,0,0,0,2.049,2.048,5.131,5.131,0,0,0,1.7.325c.747.033.985.041,2.886.041s2.139-.008,2.886-.041a5.116,5.116,0,0,0,1.7-.325,3.581,3.581,0,0,0,2.049-2.048,5.132,5.132,0,0,0,.325-1.7c.033-.747.041-.985.041-2.885s0-2.139-.036-2.885ZM13.152,9.832a3.837,3.837,0,0,1-.241,1.3,2.323,2.323,0,0,1-1.329,1.329,3.852,3.852,0,0,1-1.3.241c-.739.033-.96.041-2.828.041s-2.093-.008-2.828-.041a3.837,3.837,0,0,1-1.3-.241,2.155,2.155,0,0,1-.8-.522,2.177,2.177,0,0,1-.523-.8,3.851,3.851,0,0,1-.241-1.3c-.033-.738-.041-.96-.041-2.828s.008-2.092.041-2.828A3.835,3.835,0,0,1,2,2.88a2.128,2.128,0,0,1,.525-.8,2.174,2.174,0,0,1,.8-.522,3.855,3.855,0,0,1,1.3-.241c.739-.033.96-.041,2.828-.041s2.093.008,2.828.041a3.839,3.839,0,0,1,1.3.241,2.153,2.153,0,0,1,.8.522,2.176,2.176,0,0,1,.523.8,3.852,3.852,0,0,1,.241,1.3c.033.738.041.96.041,2.828s-.008,2.087-.041,2.825Zm0,0" fill="currentColor"/>
                <path d="M128.536,124.5a3.585,3.585,0,1,0,3.587,3.585A3.587,3.587,0,0,0,128.536,124.5Zm0,5.911a2.326,2.326,0,1,1,2.327-2.326A2.327,2.327,0,0,1,128.536,130.411Zm0,0" transform="translate(-121.085 -121.084)" fill="currentColor"/>
                <path d="M364.134,89.444a.842.842,0,1,1-.842-.842A.842.842,0,0,1,364.134,89.444Zm0,0" transform="translate(-352.103 -86.18)" fill="currentColor"/>
            </g>
        </g>
    </symbol>

    <symbol id="imo" viewBox="0 0 16 8">
        <g>
            <path d="M5.059,14.746c0,.383.252.4.252.4h.848c.349,0,.33-.465.33-.465V10.359c0-.4-.311-.4-.311-.4H5.35c-.29,0-.29.333-.29.333Zm.715-7.483a.745.745,0,0,0-.753.817.745.745,0,0,0,.743.806.762.762,0,0,0,.771-.806A.763.763,0,0,0,5.774,7.263Zm9.19,4.829c0-1.548-.668-2.248-1.552-2.248a1.517,1.517,0,0,0-.875.255,2.182,2.182,0,0,0-.593.626h-.019a1.3,1.3,0,0,0-1.26-.88,1.565,1.565,0,0,0-1.392.817H9.245l-.037-.389s-.051-.311-.333-.311h-.6a.292.292,0,0,0-.291.313s.026.836.026,1.342v2.979s0,.552.458.552h.616c.368,0,.318-.552.318-.552v-2.47a1.193,1.193,0,0,1,.056-.4.752.752,0,0,1,.668-.583c.451,0,.658.445.658,1.1v2.353c0,.521.361.552.361.552h.636c.4,0,.4-.509.4-.509V12.113a1.508,1.508,0,0,1,.056-.414.718.718,0,0,1,.658-.562c.461,0,.677.435.677,1.188V14.55s-.073.6.292.6h.771s.329-.037.329-.552ZM18.67,9.844a2.452,2.452,0,0,0-2.455,2.747,2.4,2.4,0,0,0,2.38,2.672,2.46,2.46,0,0,0,2.427-2.768A2.392,2.392,0,0,0,18.67,9.844Zm-.038,4.263c-.611,0-.941-.668-.941-1.559,0-.764.254-1.559.941-1.559.649,0,.912.785.912,1.559C19.545,13.481,19.187,14.107,18.632,14.107Z" transform="translate(-5.021 -7.263)" fill="currentColor" fill-rule="evenodd"/>
        </g>
    </symbol>

    <symbol id="catArrowDown" viewBox="0 0 8 6">
        <g>
            <path d="M3.168,1.248a1,1,0,0,1,1.664,0l2.131,3.2A1,1,0,0,1,6.131,6H1.869a1,1,0,0,1-.832-1.555Z" transform="translate(8 6) rotate(180)" fill="currentColor"/>
        </g>
    </symbol>

    <symbol id="selectArrowDown" viewBox="0 0 8 6">
        <g>
            <path d="M4,0,8,6H0Z" transform="translate(8 6) rotate(180)" fill="currentColor"/>
        </g>
    </symbol>

    <symbol id="pagginationRightBtn" viewBox="0 0 11.63 20.243">
        <g transform="translate(-5.87 2.121)">
            <path d="M8,8l8.009,8L8,24" transform="translate(-0.009 -8)" fill="none" stroke="currentColor" stroke-linecap="round" stroke-linejoin="round" stroke-width="3"/>
        </g>
    </symbol>

    <symbol id="pagginationLeftBtn" viewBox="0 0 11.63 20.243">
        <g transform="translate(-12.5 -5.879)">
            <path d="M16.009,8,8,16l8.009,8" transform="translate(6)" fill="none" stroke="currentColor" stroke-linecap="round" stroke-linejoin="round" stroke-width="3"/>
        </g>
    </symbol>

    <symbol id="minusBtn" viewBox="0 0 20 2">
        <rect width="19.999" height="2" rx="1" fill="currentColor"/>
    </symbol>

    <symbol id="plusBtn" viewBox="0 0 20 20">
        <path d="M-6191,23V15h-8a1,1,0,0,1-1-1,1,1,0,0,1,1-1h8V5a1,1,0,0,1,1-1,1,1,0,0,1,1,1v8h8a1,1,0,0,1,1,1,1,1,0,0,1-1,1h-8v8a1,1,0,0,1-1,1A1,1,0,0,1-6191,23Z" transform="translate(6200 -4)" fill="currentColor"/>
    </symbol>

    <symbol id="bag" viewBox="0 0 27 29">
        <g transform="translate(-1.5 -0.5)">
            <path d="M7,2,3,7.2V25.4A2.634,2.634,0,0,0,5.667,28H24.333A2.634,2.634,0,0,0,27,25.4V7.2L23,2Z" transform="translate(0 0)" fill="none" stroke="currentColor" stroke-linecap="round" stroke-linejoin="round" stroke-width="3"/>
            <line x2="23.6" transform="translate(3 7)" fill="none" stroke="currentColor" stroke-linecap="round" stroke-linejoin="round" stroke-width="3"/>
            <path d="M18.4,10A5.2,5.2,0,0,1,8,10" transform="translate(1.8 2.4)" fill="none" stroke="currentColor" stroke-linecap="round" stroke-linejoin="round" stroke-width="3"/>
        </g>
    </symbol>

    <symbol id="clock" viewBox="0 0 29 29">
        <g transform="translate(-0.5 -0.5)">
            <circle cx="13" cy="13" r="13" transform="translate(2 2)" fill="none" stroke="currentColor" stroke-linecap="round" stroke-linejoin="round" stroke-width="3"/>
            <path d="M12,6v7.8l5.2,2.6" transform="translate(3 1.2)" fill="none" stroke="currentColor" stroke-linecap="round" stroke-linejoin="round" stroke-width="3"/>
        </g>
    </symbol>

    <symbol id="info" viewBox="0 0 23 23">
        <g transform="translate(-0.5 -0.5)">
            <circle cx="10" cy="10" r="10" transform="translate(2 2)" fill="none" stroke="currentColor" stroke-linecap="round" stroke-linejoin="round" stroke-width="3"/>
            <line y1="4" transform="translate(12 12)" fill="none" stroke="currentColor" stroke-linecap="round" stroke-linejoin="round" stroke-width="3"/>
            <line x2="0.01" transform="translate(12 8)" fill="none" stroke="currentColor" stroke-linecap="round" stroke-linejoin="round" stroke-width="3"/>
        </g>
    </symbol>

    <symbol id="delete" viewBox="0 0 18.529 21">
        <g>
            <path d="M16.58,5a1.638,1.638,0,0,0-1.618,1.633v.7H10.57a.687.687,0,0,0-.072,0,.7.7,0,0,0,.072,1.4H25.35L24.9,24.345c0,.166-.091.255-.231.255h-11.1c-.14,0-.226-.089-.231-.255l-.4-13.993a.694.694,0,1,0-1.387.036l.4,13.993A1.659,1.659,0,0,0,13.575,26h11.1a1.659,1.659,0,0,0,1.618-1.619l.448-15.648h.939a.7.7,0,0,0,0-1.4H23.284v-.7A1.638,1.638,0,0,0,21.666,5Zm0,1.4h5.085a.218.218,0,0,1,.231.233v.7H16.349v-.7A.218.218,0,0,1,16.58,6.4Zm-.7,4.652a.69.69,0,0,0-.491.213.7.7,0,0,0-.2.5v9.8a.694.694,0,1,0,1.387,0v-9.8a.7.7,0,0,0-.2-.507A.69.69,0,0,0,15.879,11.052Zm3.236,0a.69.69,0,0,0-.491.213.7.7,0,0,0-.2.5v9.8a.694.694,0,1,0,1.387,0v-9.8a.7.7,0,0,0-.2-.507A.69.69,0,0,0,19.116,11.052Zm3.236,0a.69.69,0,0,0-.491.213.7.7,0,0,0-.2.5v9.8a.694.694,0,1,0,1.387,0v-9.8a.7.7,0,0,0-.2-.507A.69.69,0,0,0,22.352,11.052Z" transform="translate(-9.84 -5)" fill="currentColor"/>
        </g>
    </symbol>

    <symbol id="cartPlusIcon" viewBox="0 0 10 9.999">
        <g>
            <path d="M-6196,13V10h-3a1,1,0,0,1-1-1,1,1,0,0,1,1-1h3V5a1,1,0,0,1,1-1,1,1,0,0,1,1,1V8h3a1,1,0,0,1,1,1,1,1,0,0,1-1,1h-3v3a1,1,0,0,1-1,1A1,1,0,0,1-6196,13Z" transform="translate(6200 -4)" fill="currentColor"/>
        </g>
    </symbol>

    <symbol id="cartMinusIcon" viewBox="0 0 10 2">
        <g>
            <rect width="10" height="2" rx="1" fill="currentColor"/>
        </g>
    </symbol>

    <symbol id="deleteIcon" viewBox="0 0 15.999 16">
        <g>
            <path d="M-8413,7l-7,7,7-7-7-7,7,7,7-7-7,7,7,7Z" transform="translate(8421 1)" fill="none" stroke="currentColor" stroke-linecap="round" stroke-linejoin="round" stroke-width="2"/>
        </g>
    </symbol>

    <symbol id="downloadIcon" viewBox="0 0 20 20">
        <g transform="translate(-2 -2)">
            <path d="M21,15v4a2,2,0,0,1-2,2H5a2,2,0,0,1-2-2V15" fill="none" stroke="currentColor" stroke-linecap="round" stroke-linejoin="round" stroke-width="2"/>
            <path d="M7,10l5,5,5-5" fill="none" stroke="currentColor" stroke-linecap="round" stroke-linejoin="round" stroke-width="2"/>
            <line transform="translate(12 3)" fill="none" stroke="currentColor" stroke-linecap="round" stroke-linejoin="round" stroke-width="2"/>
        </g>
    </symbol>

    <symbol id="mapIcon" viewBox="0 0 24 22">
        <g transform="translate(0 -1)">
            <path d="M1,6V22l7-4,8,4,7-4V2L16,6,8,2Z" fill="none" stroke="currentColor" stroke-linecap="round" stroke-linejoin="round" stroke-width="2"/>
            <line y2="16" transform="translate(8 2)" fill="none" stroke="currentColor" stroke-linecap="round" stroke-linejoin="round" stroke-width="2"/>
            <line y2="16" transform="translate(16 6)" fill="none" stroke="currentColor" stroke-linecap="round" stroke-linejoin="round" stroke-width="2"/>
        </g>
    </symbol>

    <symbol id="phoneCallIcon" viewBox="0 0 22.106 22.106">
        <g>
            <path d="M14.5,4.823A4.783,4.783,0,0,1,18.282,8.6M14.5,1a8.609,8.609,0,0,1,7.612,7.588m-.957,7.626v2.867a1.914,1.914,0,0,1-2.087,1.911A18.972,18.972,0,0,1,10.8,18.058a18.653,18.653,0,0,1-5.745-5.734A18.889,18.889,0,0,1,2.12,4.039,1.913,1.913,0,0,1,4.025,1.956H6.9A1.914,1.914,0,0,1,8.812,3.6a12.251,12.251,0,0,0,.67,2.685A1.909,1.909,0,0,1,9.052,8.3L7.836,9.515a15.305,15.305,0,0,0,5.745,5.734L14.8,14.035a1.918,1.918,0,0,1,2.02-.43,12.313,12.313,0,0,0,2.691.669,1.912,1.912,0,0,1,1.647,1.94Z" transform="translate(-1.111 0.104)" fill="none" stroke="currentColor" stroke-linecap="round" stroke-linejoin="round" stroke-width="2"/>
        </g>
    </symbol>

    <symbol id="mailIcon" viewBox="0 0 26.794 22">
        <g transform="translate(-0.603 -3)">
            <path d="M4.4,4H23.6A2.459,2.459,0,0,1,26,6.5v15A2.459,2.459,0,0,1,23.6,24H4.4A2.459,2.459,0,0,1,2,21.5V6.5A2.459,2.459,0,0,1,4.4,4Z" fill="none" stroke="currentColor" stroke-linecap="round" stroke-linejoin="round" stroke-width="2"/>
            <path d="M26,6,14,14.75,2,6" transform="translate(0 0.5)" fill="none" stroke="currentColor" stroke-linecap="round" stroke-linejoin="round" stroke-width="2"/>
        </g>
    </symbol>

    <symbol id="showPassIcon" viewBox="0 0 24.828 24.828">
        <g transform="translate(0.414 0.414)">
            <path d="M17.94,17.94A10.07,10.07,0,0,1,12,20C5,20,1,12,1,12A18.45,18.45,0,0,1,6.06,6.06M9.9,4.24A9.12,9.12,0,0,1,12,4c7,0,11,8,11,8a18.5,18.5,0,0,1-2.16,3.19m-6.72-1.07A3,3,0,1,1,9.88,9.88" fill="none" stroke="currentColor" stroke-linecap="round" stroke-linejoin="round" stroke-width="2"/>
            <line x2="22" y2="22" transform="translate(1 1)" fill="none" stroke="currentColor" stroke-linecap="round" stroke-linejoin="round" stroke-width="2"/>
        </g>
    </symbol>

    <symbol id="CategoryBurger" viewBox="0 0 21 14">
        <g>
            <path fill="currentColor" d="M0 1a1 1 0 0 1 1-1h19a1 1 0 0 1 0 2H1a1 1 0 0 1-1-1z"/>
            <path fill="currentColor" d="M0 7a1 1 0 0 1 1-1h19a1 1 0 0 1 0 2H1a1 1 0 0 1-1-1z"/>
            <path fill="currentColor" d="M0 13a1 1 0 0 1 1-1h19a1 1 0 0 1 0 2H1a1 1 0 0 1-1-1z"/>
        </g>
    </symbol>

    <symbol id="filter" viewBox="0 0 24 24">
        <g>
            <path fill="currentColor" d="M12 18.88A1 1 0 0 1 11.71 19.71A1 1 0 0 1 10.3 19.71L6.3 15.71A1 1 0 0 1 6 14.87V9.75L1.21 3.62A1 1 0 0 1 1.38 2.22A1 1 0 0 1 2 2H16A1 1 0 0 1 16.62 2.22A1 1 0 0 1 16.79 3.62L12 9.75V18.88M4 4L8 9.06V14.58L10 16.58V9.05L14 4M13 16L18 21L23 16Z" />
        </g>
    </symbol>

    
</svg>