<?xml version="1.0" standalone="no"?>
<!DOCTYPE svg PUBLIC "-//W3C//DTD SVG 1.1//EN" "http://www.w3.org/Graphics/SVG/1.1/DTD/svg11.dtd" >
<svg xmlns="http://www.w3.org/2000/svg" xmlns:xlink="http://www.w3.org/1999/xlink" version="1.1">
<metadata>
Created by FontForge 20190801 at Thu Aug 16 22:44:10 2007
 By Unknown
Copyright 1991, 1992, 2003 Adobe Systems Incorporated. All rights reserved. Helvetica is a Trademark of Heidelberger Druckmaschinen AG exclusively licensed through Linotype Library GmbH, and may be registered in certain jurisdictions.
</metadata>
<defs>
<font id="HelveticaLTStd-Fractions" horiz-adv-x="333" >
  <font-face 
    font-family="Helvetica LT Std"
    font-weight="400"
    font-stretch="normal"
    units-per-em="1000"
    panose-1="5 5 1 2 1 0 0 0 0 0"
    ascent="709"
    descent="-291"
    bbox="-167 -123 1222 779"
    underline-thickness="50"
    underline-position="-100"
    stemh="46"
    stemv="62"
    unicode-range="U+0020-E055"
  />
<missing-glyph horiz-adv-x="500" 
d="M0 0v700h500v-700h-500zM250 395l170 255h-340zM280 350l170 -255v510zM80 50h340l-170 255zM50 605v-510l170 255z" />
    <glyph glyph-name=".notdef" horiz-adv-x="500" 
d="M0 0v700h500v-700h-500zM250 395l170 255h-340zM280 350l170 -255v510zM80 50h340l-170 255zM50 605v-510l170 255z" />
    <glyph glyph-name="space" unicode=" " horiz-adv-x="310" 
 />
    <glyph glyph-name="zero" unicode="0" horiz-adv-x="556" 
d="M42 348c0 157 14 361 236 361s236 -204 236 -361c0 -156 -14 -360 -236 -360s-236 204 -236 360zM132 349c0 -106 1 -286 146 -286s146 180 146 286c0 105 -1 285 -146 285s-146 -180 -146 -285z" />
    <glyph glyph-name="one" unicode="1" horiz-adv-x="556" 
d="M356 709v-709h-85v508h-184v68c97 0 185 26 204 133h65z" />
    <glyph glyph-name="two" unicode="2" horiz-adv-x="556" 
d="M129 458h-85c-7 144 78 251 228 251c124 0 222 -72 222 -204c0 -125 -84 -188 -172 -243c-89 -54 -182 -99 -199 -187h364v-75h-463c14 168 99 228 199 290c120 74 181 118 181 216c0 77 -62 128 -137 128c-99 0 -141 -91 -138 -176z" />
    <glyph glyph-name="three" unicode="3" horiz-adv-x="556" 
d="M218 333v72c13 -1 25 -1 37 -1c72 0 135 39 135 116c0 74 -54 114 -126 114c-93 0 -133 -71 -134 -154h-85c5 135 77 229 219 229c123 0 216 -59 216 -190c0 -62 -44 -116 -98 -141v-2c86 -19 128 -87 128 -172c0 -142 -111 -216 -244 -216c-144 0 -239 85 -236 231h85
c3 -92 54 -156 151 -156c83 0 154 51 154 137c0 89 -67 136 -151 136c-17 0 -35 -1 -51 -3z" />
    <glyph glyph-name="four" unicode="4" horiz-adv-x="556" 
d="M419 709v-468h96v-75h-96v-166h-80v166h-311v82l323 461h68zM101 241h238v347h-2z" />
    <glyph glyph-name="five" unicode="5" horiz-adv-x="556" 
d="M470 697v-75h-286l-38 -204l2 -2c31 35 84 51 132 51c126 0 229 -81 229 -243c0 -120 -83 -236 -248 -236c-123 0 -223 75 -226 203h85c5 -73 64 -128 149 -128c81 0 150 55 150 168c0 94 -65 161 -160 161c-54 0 -99 -27 -132 -67l-73 4l66 368h350z" />
    <glyph glyph-name="six" unicode="6" horiz-adv-x="556" 
d="M286 381c-95 0 -147 -71 -147 -160c0 -88 54 -158 147 -158c92 0 143 73 143 157c0 88 -46 161 -143 161zM499 528h-85c-8 64 -52 106 -119 106c-145 0 -168 -160 -172 -269l2 -2c40 65 100 93 177 93c136 0 217 -99 217 -230c0 -103 -58 -238 -237 -238
c-210 0 -244 192 -244 341c0 195 59 380 261 380c117 0 190 -66 200 -181z" />
    <glyph glyph-name="seven" unicode="7" horiz-adv-x="556" 
d="M509 697v-73c-143 -142 -259 -402 -272 -624h-95c16 240 131 459 280 617h-372v80h459z" />
    <glyph glyph-name="eight" unicode="8" horiz-adv-x="556" 
d="M130 200c0 -85 63 -137 151 -137c85 0 145 59 145 138c0 77 -66 135 -146 135c-84 0 -150 -54 -150 -136zM65 528c0 117 99 181 208 181c155 0 215 -91 215 -181c0 -63 -40 -121 -98 -147c85 -27 126 -89 126 -177c0 -137 -104 -216 -235 -216c-136 0 -241 71 -241 216
c0 84 45 149 124 177c-59 24 -99 83 -99 147zM155 525c0 -78 56 -114 126 -114c67 0 117 42 117 114c0 71 -50 109 -119 109c-68 0 -124 -38 -124 -109z" />
    <glyph glyph-name="nine" unicode="9" horiz-adv-x="556" 
d="M409 472c0 87 -51 162 -146 162c-101 0 -139 -81 -139 -168c0 -78 58 -150 140 -150c89 0 145 72 145 156zM49 171h85c6 -69 62 -108 130 -108c104 0 155 91 160 274l-2 2c-32 -60 -95 -98 -164 -98c-144 0 -224 97 -224 237c0 137 96 231 233 231
c132 0 243 -71 243 -339c0 -245 -74 -382 -246 -382c-119 0 -204 61 -215 183z" />
    <glyph glyph-name="fraction" unicode="&#x2044;" horiz-adv-x="167" 
d="M-167 -12l441 721h60l-441 -721h-60z" />
    <glyph glyph-name="oneeighth" unicode="&#x215b;" horiz-adv-x="833" 
d="M227 709v-425h-66v301h-112v45c64 0 119 15 131 79h47zM166 -12l441 721h60l-441 -721h-60zM757 122c0 46 -35 76 -90 76s-91 -30 -91 -76c0 -45 36 -75 91 -75s90 30 90 75zM741 230v-2c57 -16 84 -53 84 -106c0 -82 -69 -129 -158 -129s-159 47 -159 129
c0 53 28 90 85 106v2c-39 14 -66 49 -66 87c0 54 41 108 140 108s139 -54 139 -108c0 -38 -26 -73 -65 -87zM667 371c-44 0 -72 -19 -72 -60c0 -40 28 -59 72 -59c43 0 71 19 71 59c0 41 -28 60 -71 60z" />
    <glyph glyph-name="percent" unicode="%" horiz-adv-x="833" 
d="M10 493c0 154 56 216 156 216s156 -62 156 -216s-56 -216 -156 -216s-156 62 -156 216zM166 655c-57 0 -88 -42 -88 -163c0 -119 31 -161 88 -161s88 42 88 161c0 121 -31 163 -88 163zM166 -12l441 721h60l-441 -721h-60zM510 209c0 154 56 216 156 216
s156 -62 156 -216s-56 -216 -156 -216s-156 62 -156 216zM666 371c-57 0 -88 -42 -88 -163c0 -119 31 -161 88 -161s88 42 88 161c0 121 -31 163 -88 163z" />
    <glyph glyph-name="slash" unicode="/" horiz-adv-x="167" 
d="M-167 -12l441 721h60l-441 -721h-60z" />
    <glyph glyph-name="bullet" unicode="&#x2022;" 
d="M166 260c-33 0 -63 30 -63 63s30 63 63 63s63 -30 63 -63s-30 -63 -63 -63z" />
    <glyph glyph-name="perthousand" unicode="&#x2030;" horiz-adv-x="1233" 
d="M10 493c0 154 56 216 156 216s156 -62 156 -216s-56 -216 -156 -216s-156 62 -156 216zM166 655c-57 0 -88 -42 -88 -163c0 -119 31 -161 88 -161s88 42 88 161c0 121 -31 163 -88 163zM166 -12l441 721h60l-441 -721h-60zM510 209c0 154 56 216 156 216
s156 -62 156 -216s-56 -216 -156 -216s-156 62 -156 216zM666 371c-57 0 -88 -42 -88 -163c0 -119 31 -161 88 -161s88 42 88 161c0 121 -31 163 -88 163zM910 209c0 154 56 216 156 216s156 -62 156 -216s-56 -216 -156 -216s-156 62 -156 216zM1066 371
c-57 0 -88 -42 -88 -163c0 -119 31 -161 88 -161s88 42 88 161c0 121 -31 163 -88 163z" />
    <glyph glyph-name="onehalf" unicode="&#xbd;" horiz-adv-x="833" 
d="M227 709v-425h-66v301h-112v45c64 0 119 15 131 79h47zM166 -12l441 721h60l-441 -721h-60zM583 275h-62c-5 86 52 150 154 150c89 0 143 -50 143 -122c0 -65 -37 -104 -116 -150c-68 -40 -108 -60 -117 -99h228v-54h-305c7 101 63 144 129 181c78 44 113 68 113 120
c0 42 -26 70 -80 70c-63 0 -89 -46 -87 -96z" />
    <glyph glyph-name="onequarter" unicode="&#xbc;" horiz-adv-x="833" 
d="M227 709v-425h-66v301h-112v45c64 0 119 15 131 79h47zM166 -12l441 721h60l-441 -721h-60zM764 425v-274h63v-54h-63v-97h-58v97h-201v52l214 276h45zM571 151h135v177h-2z" />
    <glyph glyph-name="threequarters" unicode="&#xbe;" horiz-adv-x="833" 
d="M132 479v53c8 -1 16 -1 24 -1c51 0 81 27 81 64c0 36 -21 60 -71 60c-59 0 -86 -33 -86 -83h-62c3 81 51 137 147 137c79 0 140 -37 140 -110c0 -39 -22 -71 -65 -88v-2c57 -11 85 -52 85 -103c0 -85 -74 -129 -161 -129c-95 0 -158 51 -156 138h62c4 -55 36 -84 94 -84
c66 0 93 36 93 75c0 47 -35 75 -91 75c-12 0 -24 -1 -34 -2zM166 -12l441 721h60l-441 -721h-60zM764 425v-274h63v-54h-63v-97h-58v97h-201v52l214 276h45zM571 151h135v177h-2z" />
    <glyph glyph-name="threeeighths" unicode="&#x215c;" horiz-adv-x="833" 
d="M132 479v53c8 -1 16 -1 24 -1c51 0 81 27 81 64c0 36 -21 60 -71 60c-59 0 -86 -33 -86 -83h-62c3 81 51 137 147 137c79 0 140 -37 140 -110c0 -39 -22 -71 -65 -88v-2c57 -11 85 -52 85 -103c0 -85 -74 -129 -161 -129c-95 0 -158 51 -156 138h62c4 -55 36 -84 94 -84
c66 0 93 36 93 75c0 47 -35 75 -91 75c-12 0 -24 -1 -34 -2zM166 -12l441 721h60l-441 -721h-60zM757 122c0 46 -35 76 -90 76s-91 -30 -91 -76c0 -45 36 -75 91 -75s90 30 90 75zM741 230v-2c57 -16 84 -53 84 -106c0 -82 -69 -129 -158 -129s-159 47 -159 129
c0 53 28 90 85 106v2c-39 14 -66 49 -66 87c0 54 41 108 140 108s139 -54 139 -108c0 -38 -26 -73 -65 -87zM667 371c-44 0 -72 -19 -72 -60c0 -40 28 -59 72 -59c43 0 71 19 71 59c0 41 -28 60 -71 60z" />
    <glyph glyph-name="fiveeighths" unicode="&#x215d;" horiz-adv-x="833" 
d="M297 702v-54h-188l-22 -106h2c18 16 51 25 83 25c94 0 151 -57 151 -142s-55 -148 -164 -148c-81 0 -147 45 -149 122h62c6 -41 36 -68 87 -68c62 0 96 37 96 92c0 52 -34 90 -94 90c-39 0 -68 -13 -90 -37l-48 2l43 224h231zM166 -12l441 721h60l-441 -721h-60zM757 122
c0 46 -35 76 -90 76s-91 -30 -91 -76c0 -45 36 -75 91 -75s90 30 90 75zM741 230v-2c57 -16 84 -53 84 -106c0 -82 -69 -129 -158 -129s-159 47 -159 129c0 53 28 90 85 106v2c-39 14 -66 49 -66 87c0 54 41 108 140 108s139 -54 139 -108c0 -38 -26 -73 -65 -87zM667 371
c-44 0 -72 -19 -72 -60c0 -40 28 -59 72 -59c43 0 71 19 71 59c0 41 -28 60 -71 60z" />
    <glyph glyph-name="uni2155" unicode="&#x2155;" horiz-adv-x="833" 
d="M227 709v-425h-66v301h-112v45c64 0 119 15 131 79h47zM166 -12l441 721h60l-441 -721h-60zM797 418v-54h-188l-22 -106h2c18 16 51 25 83 25c94 0 151 -57 151 -142s-55 -148 -164 -148c-81 0 -147 45 -149 122h62c6 -41 36 -68 87 -68c62 0 96 37 96 92
c0 52 -34 90 -94 90c-39 0 -68 -13 -90 -37l-48 2l43 224h231z" />
    <glyph glyph-name="uni2156" unicode="&#x2156;" horiz-adv-x="833" 
d="M83 559h-62c-5 86 52 150 154 150c89 0 143 -50 143 -122c0 -65 -37 -104 -116 -150c-68 -40 -108 -60 -117 -99h228v-54h-305c7 101 63 144 129 181c78 44 113 68 113 120c0 42 -26 70 -80 70c-63 0 -89 -46 -87 -96zM166 -12l441 721h60l-441 -721h-60zM797 418v-54
h-188l-22 -106h2c18 16 51 25 83 25c94 0 151 -57 151 -142s-55 -148 -164 -148c-81 0 -147 45 -149 122h62c6 -41 36 -68 87 -68c62 0 96 37 96 92c0 52 -34 90 -94 90c-39 0 -68 -13 -90 -37l-48 2l43 224h231z" />
    <glyph glyph-name="uni2157" unicode="&#x2157;" horiz-adv-x="833" 
d="M132 479v53c8 -1 16 -1 24 -1c51 0 81 27 81 64c0 36 -21 60 -71 60c-59 0 -86 -33 -86 -83h-62c3 81 51 137 147 137c79 0 140 -37 140 -110c0 -39 -22 -71 -65 -88v-2c57 -11 85 -52 85 -103c0 -85 -74 -129 -161 -129c-95 0 -158 51 -156 138h62c4 -55 36 -84 94 -84
c66 0 93 36 93 75c0 47 -35 75 -91 75c-12 0 -24 -1 -34 -2zM166 -12l441 721h60l-441 -721h-60zM797 418v-54h-188l-22 -106h2c18 16 51 25 83 25c94 0 151 -57 151 -142s-55 -148 -164 -148c-81 0 -147 45 -149 122h62c6 -41 36 -68 87 -68c62 0 96 37 96 92
c0 52 -34 90 -94 90c-39 0 -68 -13 -90 -37l-48 2l43 224h231z" />
    <glyph glyph-name="uni2158" unicode="&#x2158;" horiz-adv-x="833" 
d="M264 709v-274h63v-54h-63v-97h-58v97h-201v52l214 276h45zM71 435h135v177h-2zM166 -12l441 721h60l-441 -721h-60zM797 418v-54h-188l-22 -106h2c18 16 51 25 83 25c94 0 151 -57 151 -142s-55 -148 -164 -148c-81 0 -147 45 -149 122h62c6 -41 36 -68 87 -68
c62 0 96 37 96 92c0 52 -34 90 -94 90c-39 0 -68 -13 -90 -37l-48 2l43 224h231z" />
    <glyph glyph-name="uni2159" unicode="&#x2159;" horiz-adv-x="833" 
d="M227 709v-425h-66v301h-112v45c64 0 119 15 131 79h47zM166 -12l441 721h60l-441 -721h-60zM582 133c0 -48 30 -86 89 -86c57 0 86 40 86 85c0 48 -25 88 -86 88c-60 0 -89 -39 -89 -87zM811 317h-62c-5 32 -31 54 -72 54c-88 0 -106 -87 -108 -141l2 -1
c24 28 61 45 110 45c90 0 144 -60 144 -138c0 -62 -39 -143 -157 -143c-138 0 -161 115 -161 204c0 117 39 228 172 228c78 0 126 -39 132 -108z" />
    <glyph glyph-name="uni215A" unicode="&#x215a;" horiz-adv-x="833" 
d="M297 702v-54h-188l-22 -106h2c18 16 51 25 83 25c94 0 151 -57 151 -142s-55 -148 -164 -148c-81 0 -147 45 -149 122h62c6 -41 36 -68 87 -68c62 0 96 37 96 92c0 52 -34 90 -94 90c-39 0 -68 -13 -90 -37l-48 2l43 224h231zM166 -12l441 721h60l-441 -721h-60zM582 133
c0 -48 30 -86 89 -86c57 0 86 40 86 85c0 48 -25 88 -86 88c-60 0 -89 -39 -89 -87zM811 317h-62c-5 32 -31 54 -72 54c-88 0 -106 -87 -108 -141l2 -1c24 28 61 45 110 45c90 0 144 -60 144 -138c0 -62 -39 -143 -157 -143c-138 0 -161 115 -161 204c0 117 39 228 172 228
c78 0 126 -39 132 -108z" />
    <glyph glyph-name="seveneighths" unicode="&#x215e;" horiz-adv-x="833" 
d="M321 702v-44c-94 -85 -169 -241 -178 -374h-72c10 144 86 275 175 360h-228v58h303zM166 -12l441 721h60l-441 -721h-60zM757 122c0 46 -35 76 -90 76s-91 -30 -91 -76c0 -45 36 -75 91 -75s90 30 90 75zM741 230v-2c57 -16 84 -53 84 -106c0 -82 -69 -129 -158 -129
s-159 47 -159 129c0 53 28 90 85 106v2c-39 14 -66 49 -66 87c0 54 41 108 140 108s139 -54 139 -108c0 -38 -26 -73 -65 -87zM667 371c-44 0 -72 -19 -72 -60c0 -40 28 -59 72 -59c43 0 71 19 71 59c0 41 -28 60 -71 60z" />
    <glyph glyph-name="onethird" unicode="&#x2153;" horiz-adv-x="833" 
d="M227 709v-425h-66v301h-112v45c64 0 119 15 131 79h47zM166 -12l441 721h60l-441 -721h-60zM632 195v53c8 -1 16 -1 24 -1c51 0 81 27 81 64c0 36 -21 60 -71 60c-59 0 -86 -33 -86 -83h-62c3 81 51 137 147 137c79 0 140 -37 140 -110c0 -39 -22 -71 -65 -88v-2
c57 -11 85 -52 85 -103c0 -85 -74 -129 -161 -129c-95 0 -158 51 -156 138h62c4 -55 36 -84 94 -84c66 0 93 36 93 75c0 47 -35 75 -91 75c-12 0 -24 -1 -34 -2z" />
    <glyph glyph-name="twothirds" unicode="&#x2154;" horiz-adv-x="833" 
d="M83 559h-62c-5 86 52 150 154 150c89 0 143 -50 143 -122c0 -65 -37 -104 -116 -150c-68 -40 -108 -60 -117 -99h228v-54h-305c7 101 63 144 129 181c78 44 113 68 113 120c0 42 -26 70 -80 70c-63 0 -89 -46 -87 -96zM166 -12l441 721h60l-441 -721h-60zM632 195v53
c8 -1 16 -1 24 -1c51 0 81 27 81 64c0 36 -21 60 -71 60c-59 0 -86 -33 -86 -83h-62c3 81 51 137 147 137c79 0 140 -37 140 -110c0 -39 -22 -71 -65 -88v-2c57 -11 85 -52 85 -103c0 -85 -74 -129 -161 -129c-95 0 -158 51 -156 138h62c4 -55 36 -84 94 -84
c66 0 93 36 93 75c0 47 -35 75 -91 75c-12 0 -24 -1 -34 -2z" />
    <glyph glyph-name="slash.frac" horiz-adv-x="167" 
d="M-167 -12l441 721h60l-441 -721h-60z" />
    <glyph glyph-name="zero.numerator" unicode="&#xe000;" 
d="M10 493c0 154 56 216 156 216s156 -62 156 -216s-56 -216 -156 -216s-156 62 -156 216zM166 655c-57 0 -88 -42 -88 -163c0 -119 31 -161 88 -161s88 42 88 161c0 121 -31 163 -88 163z" />
    <glyph glyph-name="one.numerator" unicode="&#xe001;" 
d="M227 709v-425h-66v301h-112v45c64 0 119 15 131 79h47z" />
    <glyph glyph-name="two.numerator" unicode="&#xe002;" 
d="M83 559h-62c-5 86 52 150 154 150c89 0 143 -50 143 -122c0 -65 -37 -104 -116 -150c-68 -40 -108 -60 -117 -99h228v-54h-305c7 101 63 144 129 181c78 44 113 68 113 120c0 42 -26 70 -80 70c-63 0 -89 -46 -87 -96z" />
    <glyph glyph-name="three.numerator" unicode="&#xe003;" 
d="M132 479v53c8 -1 16 -1 24 -1c51 0 81 27 81 64c0 36 -21 60 -71 60c-59 0 -86 -33 -86 -83h-62c3 81 51 137 147 137c79 0 140 -37 140 -110c0 -39 -22 -71 -65 -88v-2c57 -11 85 -52 85 -103c0 -85 -74 -129 -161 -129c-95 0 -158 51 -156 138h62c4 -55 36 -84 94 -84
c66 0 93 36 93 75c0 47 -35 75 -91 75c-12 0 -24 -1 -34 -2z" />
    <glyph glyph-name="four.numerator" unicode="&#xe004;" 
d="M264 709v-274h63v-54h-63v-97h-58v97h-201v52l214 276h45zM71 435h135v177h-2z" />
    <glyph glyph-name="five.numerator" unicode="&#xe005;" 
d="M297 702v-54h-188l-22 -106h2c18 16 51 25 83 25c94 0 151 -57 151 -142s-55 -148 -164 -148c-81 0 -147 45 -149 122h62c6 -41 36 -68 87 -68c62 0 96 37 96 92c0 52 -34 90 -94 90c-39 0 -68 -13 -90 -37l-48 2l43 224h231z" />
    <glyph glyph-name="six.numerator" unicode="&#xe006;" 
d="M82 417c0 -48 30 -86 89 -86c57 0 86 40 86 85c0 48 -25 88 -86 88c-60 0 -89 -39 -89 -87zM311 601h-62c-5 32 -31 54 -72 54c-88 0 -106 -87 -108 -141l2 -1c24 28 61 45 110 45c90 0 144 -60 144 -138c0 -62 -39 -143 -157 -143c-138 0 -161 115 -161 204
c0 117 39 228 172 228c78 0 126 -39 132 -108z" />
    <glyph glyph-name="seven.numerator" unicode="&#xe007;" 
d="M321 702v-44c-94 -85 -169 -241 -178 -374h-72c10 144 86 275 175 360h-228v58h303z" />
    <glyph glyph-name="eight.numerator" unicode="&#xe008;" 
d="M257 406c0 46 -35 76 -90 76s-91 -30 -91 -76c0 -45 36 -75 91 -75s90 30 90 75zM241 514v-2c57 -16 84 -53 84 -106c0 -82 -69 -129 -158 -129s-159 47 -159 129c0 53 28 90 85 106v2c-39 14 -66 49 -66 87c0 54 41 108 140 108s139 -54 139 -108c0 -38 -26 -73 -65 -87
zM167 655c-44 0 -72 -19 -72 -60c0 -40 28 -59 72 -59c43 0 71 19 71 59c0 41 -28 60 -71 60z" />
    <glyph glyph-name="nine.numerator" unicode="&#xe009;" 
d="M251 569c0 48 -30 86 -89 86c-57 0 -86 -40 -86 -85c0 -48 25 -88 86 -88c60 0 89 39 89 87zM22 385h62c5 -32 31 -54 72 -54c88 0 106 87 108 141l-2 1c-24 -28 -61 -45 -110 -45c-90 0 -144 60 -144 138c0 62 39 143 157 143c138 0 161 -115 161 -204
c0 -117 -39 -228 -172 -228c-78 0 -126 39 -132 108z" />
    <glyph glyph-name="zero.denominator" unicode="&#xe00a;" 
d="M10 209c0 154 56 216 156 216s156 -62 156 -216s-56 -216 -156 -216s-156 62 -156 216zM166 371c-57 0 -88 -42 -88 -163c0 -119 31 -161 88 -161s88 42 88 161c0 121 -31 163 -88 163z" />
    <glyph glyph-name="one.denominator" unicode="&#xe00b;" 
d="M227 425v-425h-66v301h-112v45c64 0 119 15 131 79h47z" />
    <glyph glyph-name="two.denominator" unicode="&#xe00c;" 
d="M83 275h-62c-5 86 52 150 154 150c89 0 143 -50 143 -122c0 -65 -37 -104 -116 -150c-68 -40 -108 -60 -117 -99h228v-54h-305c7 101 63 144 129 181c78 44 113 68 113 120c0 42 -26 70 -80 70c-63 0 -89 -46 -87 -96z" />
    <glyph glyph-name="three.denominator" unicode="&#xe00d;" 
d="M132 195v53c8 -1 16 -1 24 -1c51 0 81 27 81 64c0 36 -21 60 -71 60c-59 0 -86 -33 -86 -83h-62c3 81 51 137 147 137c79 0 140 -37 140 -110c0 -39 -22 -71 -65 -88v-2c57 -11 85 -52 85 -103c0 -85 -74 -129 -161 -129c-95 0 -158 51 -156 138h62c4 -55 36 -84 94 -84
c66 0 93 36 93 75c0 47 -35 75 -91 75c-12 0 -24 -1 -34 -2z" />
    <glyph glyph-name="four.denominator" unicode="&#xe00e;" 
d="M264 425v-274h63v-54h-63v-97h-58v97h-201v52l214 276h45zM71 151h135v177h-2z" />
    <glyph glyph-name="five.denominator" unicode="&#xe00f;" 
d="M297 418v-54h-188l-22 -106h2c18 16 51 25 83 25c94 0 151 -57 151 -142s-55 -148 -164 -148c-81 0 -147 45 -149 122h62c6 -41 36 -68 87 -68c62 0 96 37 96 92c0 52 -34 90 -94 90c-39 0 -68 -13 -90 -37l-48 2l43 224h231z" />
    <glyph glyph-name="six.denominator" unicode="&#xe010;" 
d="M82 133c0 -48 30 -86 89 -86c57 0 86 40 86 85c0 48 -25 88 -86 88c-60 0 -89 -39 -89 -87zM311 317h-62c-5 32 -31 54 -72 54c-88 0 -106 -87 -108 -141l2 -1c24 28 61 45 110 45c90 0 144 -60 144 -138c0 -62 -39 -143 -157 -143c-138 0 -161 115 -161 204
c0 117 39 228 172 228c78 0 126 -39 132 -108z" />
    <glyph glyph-name="seven.denominator" unicode="&#xe011;" 
d="M321 418v-44c-94 -85 -169 -241 -178 -374h-72c10 144 86 275 175 360h-228v58h303z" />
    <glyph glyph-name="eight.denominator" unicode="&#xe012;" 
d="M257 122c0 46 -35 76 -90 76s-91 -30 -91 -76c0 -45 36 -75 91 -75s90 30 90 75zM241 230v-2c57 -16 84 -53 84 -106c0 -82 -69 -129 -158 -129s-159 47 -159 129c0 53 28 90 85 106v2c-39 14 -66 49 -66 87c0 54 41 108 140 108s139 -54 139 -108c0 -38 -26 -73 -65 -87
zM167 371c-44 0 -72 -19 -72 -60c0 -40 28 -59 72 -59c43 0 71 19 71 59c0 41 -28 60 -71 60z" />
    <glyph glyph-name="nine.denominator" unicode="&#xe013;" 
d="M251 285c0 48 -30 86 -89 86c-57 0 -86 -40 -86 -85c0 -48 25 -88 86 -88c60 0 89 39 89 87zM22 101h62c5 -32 31 -54 72 -54c88 0 106 87 108 141l-2 1c-24 -28 -61 -45 -110 -45c-90 0 -144 60 -144 138c0 62 39 143 157 143c138 0 161 -115 161 -204
c0 -117 -39 -228 -172 -228c-78 0 -126 39 -132 108z" />
    <glyph glyph-name="zero.numeratorkerned" unicode="&#xe014;" horiz-adv-x="1" 
d="M31 592c0 129 43 187 135 187s135 -58 135 -188c0 -129 -43 -187 -135 -187s-135 58 -135 188zM93 592c0 -106 28 -142 73 -142s73 36 73 141c0 106 -28 142 -73 142s-73 -36 -73 -141zM159 352v-48h-317v48h317z" />
    <glyph glyph-name="one.numeratorkerned" unicode="&#xe015;" horiz-adv-x="1" 
d="M213 779v-369h-56v263h-97v36c55 0 101 13 112 70h41zM159 352v-48h-317v48h317z" />
    <glyph glyph-name="two.numeratorkerned" unicode="&#xe016;" horiz-adv-x="1" 
d="M103 648h-56c-4 75 45 131 130 131c71 0 127 -38 127 -106c0 -65 -43 -100 -98 -132c-46 -27 -92 -46 -98 -81h192v-50h-264c6 93 56 126 109 156c68 38 97 58 97 107c0 33 -20 60 -64 60c-55 0 -77 -41 -75 -85zM159 352v-48h-317v48h317z" />
    <glyph glyph-name="three.numeratorkerned" unicode="&#xe017;" horiz-adv-x="1" 
d="M140 577v50c8 -1 15 -1 21 -1c35 0 67 16 67 53c0 36 -21 54 -60 54c-49 0 -69 -30 -70 -73h-56c3 70 44 119 124 119c81 0 124 -38 124 -96c0 -36 -23 -63 -56 -76v-2c49 -9 73 -45 73 -89c0 -74 -64 -112 -139 -112c-82 0 -137 44 -135 120h57c1 -46 27 -74 78 -74
c46 0 77 25 77 65c0 47 -31 65 -76 65c-9 0 -20 -2 -29 -3zM159 352v-48h-317v48h317z" />
    <glyph glyph-name="four.numeratorkerned" unicode="&#xe018;" horiz-adv-x="1" 
d="M251 779v-239h55v-46h-55v-84h-56v84h-167v45l178 240h45zM82 540h113v150h-2zM159 352v-48h-317v48h317z" />
    <glyph glyph-name="five.numeratorkerned" unicode="&#xe019;" horiz-adv-x="1" 
d="M42 577l37 196h202v-46h-162l-19 -91l1 -1c19 14 44 21 75 21c68 0 127 -45 127 -126c0 -68 -47 -126 -141 -126c-70 0 -127 39 -129 105h56c3 -38 32 -59 74 -59c47 0 78 25 78 80c0 50 -31 80 -80 80c-31 0 -57 -14 -76 -35zM159 352v-48h-317v48h317z" />
    <glyph glyph-name="six.numeratorkerned" unicode="&#xe01a;" horiz-adv-x="1" 
d="M171 601c-47 0 -73 -35 -73 -76c0 -43 26 -75 73 -75c48 0 71 34 71 74c0 42 -23 77 -71 77zM292 685h-56c-6 28 -25 48 -60 48c-74 0 -86 -75 -86 -122h2c13 21 46 36 84 36c84 0 128 -49 128 -119c0 -54 -33 -124 -135 -124c-120 0 -139 100 -139 177
c0 101 33 198 147 198c68 0 110 -35 115 -94zM159 352v-48h-317v48h317z" />
    <glyph glyph-name="seven.numeratorkerned" unicode="&#xe01b;" horiz-adv-x="1" 
d="M312 773v-40c-81 -72 -147 -208 -154 -323h-64c10 125 75 239 151 313h-194v50h261zM159 352v-48h-317v48h317z" />
    <glyph glyph-name="eight.numeratorkerned" unicode="&#xe01c;" horiz-adv-x="1" 
d="M167 450c45 0 73 26 73 65c0 38 -28 66 -73 66s-74 -28 -74 -66c0 -39 29 -65 74 -65zM45 685c0 60 56 94 119 94c88 0 122 -48 122 -94c0 -33 -23 -63 -56 -76v-2c49 -13 72 -45 72 -91c0 -71 -59 -112 -134 -112c-77 0 -137 37 -137 112c0 44 25 78 70 91v2
c-33 12 -56 42 -56 76zM107 679c0 -31 21 -52 59 -52c37 0 58 21 58 52c0 29 -20 54 -58 54s-59 -25 -59 -54zM159 352v-48h-317v48h317z" />
    <glyph glyph-name="nine.numeratorkerned" unicode="&#xe01d;" horiz-adv-x="1" 
d="M163 582c47 0 73 35 73 76c0 43 -26 75 -73 75c-48 0 -71 -34 -71 -74c0 -42 23 -77 71 -77zM42 498h56c6 -28 25 -48 60 -48c74 0 86 75 86 122h-2c-13 -21 -46 -36 -84 -36c-84 0 -128 49 -128 119c0 54 33 124 135 124c120 0 139 -100 139 -177
c0 -101 -33 -198 -147 -198c-68 0 -110 35 -115 94zM159 352v-48h-317v48h317z" />
    <glyph glyph-name="zero.denominatorkerned" unicode="&#xe01e;" 
d="M31 65c0 129 43 187 135 187s135 -58 135 -188c0 -129 -43 -187 -135 -187s-135 58 -135 188zM93 65c0 -106 28 -142 73 -142s73 36 73 141c0 106 -28 142 -73 142s-73 -36 -73 -141zM520 352v-48h-373v48h373z" />
    <glyph glyph-name="one.denominatorkerned" unicode="&#xe01f;" 
d="M213 252v-369h-56v263h-97v36c55 0 101 13 112 70h41zM520 352v-48h-373v48h373z" />
    <glyph glyph-name="two.denominatorkerned" unicode="&#xe020;" 
d="M103 121h-56c-4 75 45 131 130 131c71 0 127 -38 127 -106c0 -65 -43 -100 -98 -132c-46 -27 -92 -46 -98 -81h192v-50h-264c6 93 56 126 109 156c68 38 97 58 97 107c0 33 -20 60 -64 60c-55 0 -77 -41 -75 -85zM520 352v-48h-373v48h373z" />
    <glyph glyph-name="three.denominatorkerned" unicode="&#xe021;" 
d="M140 50v50c8 -1 15 -1 21 -1c35 0 67 16 67 53c0 36 -21 54 -60 54c-49 0 -69 -30 -70 -73h-56c3 70 44 119 124 119c81 0 124 -38 124 -96c0 -36 -23 -63 -56 -76v-2c49 -9 73 -45 73 -89c0 -74 -64 -112 -139 -112c-82 0 -137 44 -135 120h57c1 -46 27 -74 78 -74
c46 0 77 25 77 65c0 47 -31 65 -76 65c-9 0 -20 -2 -29 -3zM520 352v-48h-373v48h373z" />
    <glyph glyph-name="four.denominatorkerned" unicode="&#xe022;" 
d="M251 252v-239h55v-46h-55v-84h-56v84h-167v45l178 240h45zM82 13h113v150h-2zM520 352v-48h-373v48h373z" />
    <glyph glyph-name="five.denominatorkerned" unicode="&#xe023;" 
d="M42 50l37 196h202v-46h-162l-19 -91l1 -1c19 14 44 21 75 21c68 0 127 -45 127 -126c0 -68 -47 -126 -141 -126c-70 0 -127 39 -129 105h56c3 -38 32 -59 74 -59c47 0 78 25 78 80c0 50 -31 80 -80 80c-31 0 -57 -14 -76 -35zM520 352v-48h-373v48h373z" />
    <glyph glyph-name="six.denominatorkerned" unicode="&#xe024;" 
d="M171 74c-47 0 -73 -35 -73 -76c0 -43 26 -75 73 -75c48 0 71 34 71 74c0 42 -23 77 -71 77zM292 158h-56c-6 28 -25 48 -60 48c-74 0 -86 -75 -86 -122h2c13 21 46 36 84 36c84 0 128 -49 128 -119c0 -54 -33 -124 -135 -124c-120 0 -139 100 -139 177
c0 101 33 198 147 198c68 0 110 -35 115 -94zM520 352v-48h-373v48h373z" />
    <glyph glyph-name="seven.denominatorkerned" unicode="&#xe025;" 
d="M312 246v-40c-81 -72 -147 -208 -154 -323h-64c10 125 75 239 151 313h-194v50h261zM520 352v-48h-373v48h373z" />
    <glyph glyph-name="eight.denominatorkerned" unicode="&#xe026;" 
d="M167 -77c45 0 73 26 73 65c0 38 -28 66 -73 66s-74 -28 -74 -66c0 -39 29 -65 74 -65zM45 158c0 60 56 94 119 94c88 0 122 -48 122 -94c0 -33 -23 -63 -56 -76v-2c49 -13 72 -45 72 -91c0 -71 -59 -112 -134 -112c-77 0 -137 37 -137 112c0 44 25 78 70 91v2
c-33 12 -56 42 -56 76zM107 152c0 -31 21 -52 59 -52c37 0 58 21 58 52c0 29 -20 54 -58 54s-59 -25 -59 -54zM520 352v-48h-373v48h373z" />
    <glyph glyph-name="nine.denominatorkerned" unicode="&#xe027;" 
d="M163 55c47 0 73 35 73 76c0 43 -26 75 -73 75c-48 0 -71 -34 -71 -74c0 -42 23 -77 71 -77zM42 -29h56c6 -28 25 -48 60 -48c74 0 86 75 86 122h-2c-13 -21 -46 -36 -84 -36c-84 0 -128 49 -128 119c0 54 33 124 135 124c120 0 139 -100 139 -177
c0 -101 -33 -198 -147 -198c-68 0 -110 35 -115 94zM520 352v-48h-373v48h373z" />
    <glyph glyph-name="zero.numeratoraligned" unicode="&#xe028;" 
d="M31 592c0 129 43 187 135 187s135 -58 135 -188c0 -129 -43 -187 -135 -187s-135 58 -135 188zM93 592c0 -106 28 -142 73 -142s73 36 73 141c0 106 -28 142 -73 142s-73 -36 -73 -141zM326 352v-48h-317v48h317z" />
    <glyph glyph-name="one.numeratoraligned" unicode="&#xe029;" 
d="M213 779v-369h-56v263h-97v36c55 0 101 13 112 70h41zM326 352v-48h-317v48h317z" />
    <glyph glyph-name="two.numeratoraligned" unicode="&#xe02a;" 
d="M103 648h-56c-4 75 45 131 130 131c71 0 127 -38 127 -106c0 -65 -43 -100 -98 -132c-46 -27 -92 -46 -98 -81h192v-50h-264c6 93 56 126 109 156c68 38 97 58 97 107c0 33 -20 60 -64 60c-55 0 -77 -41 -75 -85zM326 352v-48h-317v48h317z" />
    <glyph glyph-name="three.numeratoraligned" unicode="&#xe02b;" 
d="M140 577v50c8 -1 15 -1 21 -1c35 0 67 16 67 53c0 36 -21 54 -60 54c-49 0 -69 -30 -70 -73h-56c3 70 44 119 124 119c81 0 124 -38 124 -96c0 -36 -23 -63 -56 -76v-2c49 -9 73 -45 73 -89c0 -74 -64 -112 -139 -112c-82 0 -137 44 -135 120h57c1 -46 27 -74 78 -74
c46 0 77 25 77 65c0 47 -31 65 -76 65c-9 0 -20 -2 -29 -3zM326 352v-48h-317v48h317z" />
    <glyph glyph-name="four.numeratoraligned" unicode="&#xe02c;" 
d="M251 779v-239h55v-46h-55v-84h-56v84h-167v45l178 240h45zM82 540h113v150h-2zM326 352v-48h-317v48h317z" />
    <glyph glyph-name="five.numeratoraligned" unicode="&#xe02d;" 
d="M42 577l37 196h202v-46h-162l-19 -91l1 -1c19 14 44 21 75 21c68 0 127 -45 127 -126c0 -68 -47 -126 -141 -126c-70 0 -127 39 -129 105h56c3 -38 32 -59 74 -59c47 0 78 25 78 80c0 50 -31 80 -80 80c-31 0 -57 -14 -76 -35zM326 352v-48h-317v48h317z" />
    <glyph glyph-name="six.numeratoraligned" unicode="&#xe02e;" 
d="M171 601c-47 0 -73 -35 -73 -76c0 -43 26 -75 73 -75c48 0 71 34 71 74c0 42 -23 77 -71 77zM292 685h-56c-6 28 -25 48 -60 48c-74 0 -86 -75 -86 -122h2c13 21 46 36 84 36c84 0 128 -49 128 -119c0 -54 -33 -124 -135 -124c-120 0 -139 100 -139 177
c0 101 33 198 147 198c68 0 110 -35 115 -94zM326 352v-48h-317v48h317z" />
    <glyph glyph-name="seven.numeratoraligned" unicode="&#xe02f;" 
d="M312 773v-40c-81 -72 -147 -208 -154 -323h-64c10 125 75 239 151 313h-194v50h261zM326 352v-48h-317v48h317z" />
    <glyph glyph-name="eight.numeratoraligned" unicode="&#xe030;" 
d="M167 450c45 0 73 26 73 65c0 38 -28 66 -73 66s-74 -28 -74 -66c0 -39 29 -65 74 -65zM45 685c0 60 56 94 119 94c88 0 122 -48 122 -94c0 -33 -23 -63 -56 -76v-2c49 -13 72 -45 72 -91c0 -71 -59 -112 -134 -112c-77 0 -137 37 -137 112c0 44 25 78 70 91v2
c-33 12 -56 42 -56 76zM107 679c0 -31 21 -52 59 -52c37 0 58 21 58 52c0 29 -20 54 -58 54s-59 -25 -59 -54zM326 352v-48h-317v48h317z" />
    <glyph glyph-name="nine.numeratoraligned" unicode="&#xe031;" 
d="M163 582c47 0 73 35 73 76c0 43 -26 75 -73 75c-48 0 -71 -34 -71 -74c0 -42 23 -77 71 -77zM42 498h56c6 -28 25 -48 60 -48c74 0 86 75 86 122h-2c-13 -21 -46 -36 -84 -36c-84 0 -128 49 -128 119c0 54 33 124 135 124c120 0 139 -100 139 -177
c0 -101 -33 -198 -147 -198c-68 0 -110 35 -115 94zM326 352v-48h-317v48h317z" />
    <glyph glyph-name="zero.denominatorcentered" unicode="&#xe032;" horiz-adv-x="1" 
d="M-135 65c0 129 43 187 135 187s135 -58 135 -188c0 -129 -43 -187 -135 -187s-135 58 -135 188zM-73 65c0 -106 28 -142 73 -142s73 36 73 141c0 106 -28 142 -73 142s-73 -36 -73 -141zM159 352v-48h-317v48h317z" />
    <glyph glyph-name="one.denominatorcentered" unicode="&#xe033;" horiz-adv-x="1" 
d="M47 252v-369h-56v263h-97v36c55 0 101 13 112 70h41zM159 352v-48h-317v48h317z" />
    <glyph glyph-name="two.denominatorcentered" unicode="&#xe034;" horiz-adv-x="1" 
d="M-63 121h-56c-4 75 45 131 130 131c71 0 127 -38 127 -106c0 -65 -43 -100 -98 -132c-46 -27 -92 -46 -98 -81h192v-50h-264c6 93 56 126 109 156c68 38 97 58 97 107c0 33 -20 60 -64 60c-55 0 -77 -41 -75 -85zM159 352v-48h-317v48h317z" />
    <glyph glyph-name="three.denominatorcentered" unicode="&#xe035;" horiz-adv-x="1" 
d="M-26 50v50c8 -1 15 -1 21 -1c35 0 67 16 67 53c0 36 -21 54 -60 54c-49 0 -69 -30 -70 -73h-56c3 70 44 119 124 119c81 0 124 -38 124 -96c0 -36 -23 -63 -56 -76v-2c49 -9 73 -45 73 -89c0 -74 -64 -112 -139 -112c-82 0 -137 44 -135 120h57c1 -46 27 -74 78 -74
c46 0 77 25 77 65c0 47 -31 65 -76 65c-9 0 -20 -2 -29 -3zM159 352v-48h-317v48h317z" />
    <glyph glyph-name="four.denominatorcentered" unicode="&#xe036;" horiz-adv-x="1" 
d="M85 252v-239h55v-46h-55v-84h-56v84h-167v45l178 240h45zM-84 13h113v150h-2zM159 352v-48h-317v48h317z" />
    <glyph glyph-name="five.denominatorcentered" unicode="&#xe037;" horiz-adv-x="1" 
d="M-124 50l37 196h202v-46h-162l-19 -91l1 -1c19 14 44 21 75 21c68 0 127 -45 127 -126c0 -68 -47 -126 -141 -126c-70 0 -127 39 -129 105h56c3 -38 32 -59 74 -59c47 0 78 25 78 80c0 50 -31 80 -80 80c-31 0 -57 -14 -76 -35zM159 352v-48h-317v48h317z" />
    <glyph glyph-name="six.denominatorcentered" unicode="&#xe038;" horiz-adv-x="1" 
d="M5 74c-47 0 -73 -35 -73 -76c0 -43 26 -75 73 -75c48 0 71 34 71 74c0 42 -23 77 -71 77zM126 158h-56c-6 28 -25 48 -60 48c-74 0 -86 -75 -86 -122h2c13 21 46 36 84 36c84 0 128 -49 128 -119c0 -54 -33 -124 -135 -124c-120 0 -139 100 -139 177
c0 101 33 198 147 198c68 0 110 -35 115 -94zM159 352v-48h-317v48h317z" />
    <glyph glyph-name="seven.denominatorcentered" unicode="&#xe039;" horiz-adv-x="1" 
d="M146 246v-40c-81 -72 -147 -208 -154 -323h-64c10 125 75 239 151 313h-194v50h261zM159 352v-48h-317v48h317z" />
    <glyph glyph-name="eight.denominatorcentered" unicode="&#xe03a;" horiz-adv-x="1" 
d="M1 -77c45 0 73 26 73 65c0 38 -28 66 -73 66s-74 -28 -74 -66c0 -39 29 -65 74 -65zM-121 158c0 60 56 94 119 94c88 0 122 -48 122 -94c0 -33 -23 -63 -56 -76v-2c49 -13 72 -45 72 -91c0 -71 -59 -112 -134 -112c-77 0 -137 37 -137 112c0 44 25 78 70 91v2
c-33 12 -56 42 -56 76zM-59 152c0 -31 21 -52 59 -52c37 0 58 21 58 52c0 29 -20 54 -58 54s-59 -25 -59 -54zM159 352v-48h-317v48h317z" />
    <glyph glyph-name="nine.denominatorcentered" unicode="&#xe03b;" horiz-adv-x="1" 
d="M-3 55c47 0 73 35 73 76c0 43 -26 75 -73 75c-48 0 -71 -34 -71 -74c0 -42 23 -77 71 -77zM-124 -29h56c6 -28 25 -48 60 -48c74 0 86 75 86 122h-2c-13 -21 -46 -36 -84 -36c-84 0 -128 49 -128 119c0 54 33 124 135 124c120 0 139 -100 139 -177
c0 -101 -33 -198 -147 -198c-68 0 -110 35 -115 94zM159 352v-48h-317v48h317z" />
    <glyph glyph-name="zero.numeratorcentered" unicode="&#xe03c;" horiz-adv-x="1" 
d="M-135 592c0 129 43 187 135 187s135 -58 135 -188c0 -129 -43 -187 -135 -187s-135 58 -135 188zM-73 592c0 -106 28 -142 73 -142s73 36 73 141c0 106 -28 142 -73 142s-73 -36 -73 -141zM159 352v-48h-317v48h317z" />
    <glyph glyph-name="one.numeratorcentered" unicode="&#xe03d;" horiz-adv-x="1" 
d="M47 779v-369h-56v263h-97v36c55 0 101 13 112 70h41zM159 352v-48h-317v48h317z" />
    <glyph glyph-name="two.numeratorcentered" unicode="&#xe03e;" horiz-adv-x="1" 
d="M-63 648h-56c-4 75 45 131 130 131c71 0 127 -38 127 -106c0 -65 -43 -100 -98 -132c-46 -27 -92 -46 -98 -81h192v-50h-264c6 93 56 126 109 156c68 38 97 58 97 107c0 33 -20 60 -64 60c-55 0 -77 -41 -75 -85zM159 352v-48h-317v48h317z" />
    <glyph glyph-name="three.numeratorcentered" unicode="&#xe03f;" horiz-adv-x="1" 
d="M-26 577v50c8 -1 15 -1 21 -1c35 0 67 16 67 53c0 36 -21 54 -60 54c-49 0 -69 -30 -70 -73h-56c3 70 44 119 124 119c81 0 124 -38 124 -96c0 -36 -23 -63 -56 -76v-2c49 -9 73 -45 73 -89c0 -74 -64 -112 -139 -112c-82 0 -137 44 -135 120h57c1 -46 27 -74 78 -74
c46 0 77 25 77 65c0 47 -31 65 -76 65c-9 0 -20 -2 -29 -3zM159 352v-48h-317v48h317z" />
    <glyph glyph-name="four.numeratorcentered" unicode="&#xe040;" horiz-adv-x="1" 
d="M85 779v-239h55v-46h-55v-84h-56v84h-167v45l178 240h45zM-84 540h113v150h-2zM159 352v-48h-317v48h317z" />
    <glyph glyph-name="five.numeratorcentered" unicode="&#xe041;" horiz-adv-x="1" 
d="M-124 577l37 196h202v-46h-162l-19 -91l1 -1c19 14 44 21 75 21c68 0 127 -45 127 -126c0 -68 -47 -126 -141 -126c-70 0 -127 39 -129 105h56c3 -38 32 -59 74 -59c47 0 78 25 78 80c0 50 -31 80 -80 80c-31 0 -57 -14 -76 -35zM159 352v-48h-317v48h317z" />
    <glyph glyph-name="six.numeratorcentered" unicode="&#xe042;" horiz-adv-x="1" 
d="M5 601c-47 0 -73 -35 -73 -76c0 -43 26 -75 73 -75c48 0 71 34 71 74c0 42 -23 77 -71 77zM126 685h-56c-6 28 -25 48 -60 48c-74 0 -86 -75 -86 -122h2c13 21 46 36 84 36c84 0 128 -49 128 -119c0 -54 -33 -124 -135 -124c-120 0 -139 100 -139 177
c0 101 33 198 147 198c68 0 110 -35 115 -94zM159 352v-48h-317v48h317z" />
    <glyph glyph-name="seven.numeratorcentered" unicode="&#xe043;" horiz-adv-x="1" 
d="M146 773v-40c-81 -72 -147 -208 -154 -323h-64c10 125 75 239 151 313h-194v50h261zM159 352v-48h-317v48h317z" />
    <glyph glyph-name="eight.numeratorcentered" unicode="&#xe044;" horiz-adv-x="1" 
d="M1 450c45 0 73 26 73 65c0 38 -28 66 -73 66s-74 -28 -74 -66c0 -39 29 -65 74 -65zM-121 685c0 60 56 94 119 94c88 0 122 -48 122 -94c0 -33 -23 -63 -56 -76v-2c49 -13 72 -45 72 -91c0 -71 -59 -112 -134 -112c-77 0 -137 37 -137 112c0 44 25 78 70 91v2
c-33 12 -56 42 -56 76zM-59 679c0 -31 21 -52 59 -52c37 0 58 21 58 52c0 29 -20 54 -58 54s-59 -25 -59 -54zM159 352v-48h-317v48h317z" />
    <glyph glyph-name="nine.numeratorcentered" unicode="&#xe045;" horiz-adv-x="1" 
d="M-3 582c47 0 73 35 73 76c0 43 -26 75 -73 75c-48 0 -71 -34 -71 -74c0 -42 23 -77 71 -77zM-124 498h56c6 -28 25 -48 60 -48c74 0 86 75 86 122h-2c-13 -21 -46 -36 -84 -36c-84 0 -128 49 -128 119c0 54 33 124 135 124c120 0 139 -100 139 -177
c0 -101 -33 -198 -147 -198c-68 0 -110 35 -115 94zM159 352v-48h-317v48h317z" />
    <glyph glyph-name="uni2215" unicode="&#x2215;" horiz-adv-x="167" 
d="M-167 -12l441 721h60l-441 -721h-60z" />
    <glyph glyph-name="fraction.shift" unicode="&#xe046;" horiz-adv-x="167" 
d="M-167 -12l441 721h60l-441 -721h-60z" />
    <glyph glyph-name="fiveeighths.stacked" unicode="&#xe054;" horiz-adv-x="362" 
d="M167 -77c45 0 73 26 73 65c0 38 -28 66 -73 66s-74 -28 -74 -66c0 -39 29 -65 74 -65zM45 158c0 60 56 94 119 94c88 0 122 -48 122 -94c0 -33 -23 -63 -56 -76v-2c49 -13 72 -45 72 -91c0 -71 -59 -112 -134 -112c-77 0 -137 37 -137 112c0 44 25 78 70 91v2
c-33 12 -56 42 -56 76zM107 152c0 -31 21 -52 59 -52c37 0 58 21 58 52c0 29 -20 54 -58 54s-59 -25 -59 -54zM42 577l37 196h202v-46h-162l-19 -91l1 -1c19 14 44 21 75 21c68 0 127 -45 127 -126c0 -68 -47 -126 -141 -126c-70 0 -127 39 -129 105h56c3 -38 32 -59 74 -59
c47 0 78 25 78 80c0 50 -31 80 -80 80c-31 0 -57 -14 -76 -35zM420 352v-48h-478v48h478z" />
    <glyph glyph-name="oneeighth.stacked" unicode="&#xe052;" horiz-adv-x="362" 
d="M167 -77c45 0 73 26 73 65c0 38 -28 66 -73 66s-74 -28 -74 -66c0 -39 29 -65 74 -65zM45 158c0 60 56 94 119 94c88 0 122 -48 122 -94c0 -33 -23 -63 -56 -76v-2c49 -13 72 -45 72 -91c0 -71 -59 -112 -134 -112c-77 0 -137 37 -137 112c0 44 25 78 70 91v2
c-33 12 -56 42 -56 76zM107 152c0 -31 21 -52 59 -52c37 0 58 21 58 52c0 29 -20 54 -58 54s-59 -25 -59 -54zM213 779v-369h-56v263h-97v36c55 0 101 13 112 70h41zM420 352v-48h-478v48h478z" />
    <glyph glyph-name="onehalf.stacked" unicode="&#xe048;" horiz-adv-x="362" 
d="M213 779v-369h-56v263h-97v36c55 0 101 13 112 70h41zM103 121h-56c-4 75 45 131 130 131c71 0 127 -38 127 -106c0 -65 -43 -100 -98 -132c-46 -27 -92 -46 -98 -81h192v-50h-264c6 93 56 126 109 156c68 38 97 58 97 107c0 33 -20 60 -64 60c-55 0 -77 -41 -75 -85z
M420 352v-48h-478v48h478z" />
    <glyph glyph-name="onequarter.stacked" unicode="&#xe047;" horiz-adv-x="362" 
d="M251 252v-239h55v-46h-55v-84h-56v84h-167v45l178 240h45zM82 13h113v150h-2zM213 779v-369h-56v263h-97v36c55 0 101 13 112 70h41zM420 352v-48h-478v48h478z" />
    <glyph glyph-name="uni2155.stacked" unicode="&#xe04c;" horiz-adv-x="362" 
d="M213 779v-369h-56v263h-97v36c55 0 101 13 112 70h41zM42 50l37 196h202v-46h-162l-19 -91l1 -1c19 14 44 21 75 21c68 0 127 -45 127 -126c0 -68 -47 -126 -141 -126c-70 0 -127 39 -129 105h56c3 -38 32 -59 74 -59c47 0 78 25 78 80c0 50 -31 80 -80 80
c-31 0 -57 -14 -76 -35zM420 352v-48h-478v48h478z" />
    <glyph glyph-name="uni2156.stacked" unicode="&#xe04d;" horiz-adv-x="362" 
d="M103 648h-56c-4 75 45 131 130 131c71 0 127 -38 127 -106c0 -65 -43 -100 -98 -132c-46 -27 -92 -46 -98 -81h192v-50h-264c6 93 56 126 109 156c68 38 97 58 97 107c0 33 -20 60 -64 60c-55 0 -77 -41 -75 -85zM42 50l37 196h202v-46h-162l-19 -91l1 -1
c19 14 44 21 75 21c68 0 127 -45 127 -126c0 -68 -47 -126 -141 -126c-70 0 -127 39 -129 105h56c3 -38 32 -59 74 -59c47 0 78 25 78 80c0 50 -31 80 -80 80c-31 0 -57 -14 -76 -35zM420 352v-48h-478v48h478z" />
    <glyph glyph-name="uni2157.stacked" unicode="&#xe04e;" horiz-adv-x="362" 
d="M140 577v50c8 -1 15 -1 21 -1c35 0 67 16 67 53c0 36 -21 54 -60 54c-49 0 -69 -30 -70 -73h-56c3 70 44 119 124 119c81 0 124 -38 124 -96c0 -36 -23 -63 -56 -76v-2c49 -9 73 -45 73 -89c0 -74 -64 -112 -139 -112c-82 0 -137 44 -135 120h57c1 -46 27 -74 78 -74
c46 0 77 25 77 65c0 47 -31 65 -76 65c-9 0 -20 -2 -29 -3zM42 50l37 196h202v-46h-162l-19 -91l1 -1c19 14 44 21 75 21c68 0 127 -45 127 -126c0 -68 -47 -126 -141 -126c-70 0 -127 39 -129 105h56c3 -38 32 -59 74 -59c47 0 78 25 78 80c0 50 -31 80 -80 80
c-31 0 -57 -14 -76 -35zM420 352v-48h-478v48h478z" />
    <glyph glyph-name="uni2158.stacked" unicode="&#xe04f;" horiz-adv-x="362" 
d="M251 779v-239h55v-46h-55v-84h-56v84h-167v45l178 240h45zM82 540h113v150h-2zM42 50l37 196h202v-46h-162l-19 -91l1 -1c19 14 44 21 75 21c68 0 127 -45 127 -126c0 -68 -47 -126 -141 -126c-70 0 -127 39 -129 105h56c3 -38 32 -59 74 -59c47 0 78 25 78 80
c0 50 -31 80 -80 80c-31 0 -57 -14 -76 -35zM420 352v-48h-478v48h478z" />
    <glyph glyph-name="uni2159.stacked" unicode="&#xe050;" horiz-adv-x="362" 
d="M171 74c-47 0 -73 -35 -73 -76c0 -43 26 -75 73 -75c48 0 71 34 71 74c0 42 -23 77 -71 77zM292 158h-56c-6 28 -25 48 -60 48c-74 0 -86 -75 -86 -122h2c13 21 46 36 84 36c84 0 128 -49 128 -119c0 -54 -33 -124 -135 -124c-120 0 -139 100 -139 177
c0 101 33 198 147 198c68 0 110 -35 115 -94zM213 779v-369h-56v263h-97v36c55 0 101 13 112 70h41zM420 352v-48h-478v48h478z" />
    <glyph glyph-name="uni215A.stacked" unicode="&#xe051;" horiz-adv-x="362" 
d="M171 74c-47 0 -73 -35 -73 -76c0 -43 26 -75 73 -75c48 0 71 34 71 74c0 42 -23 77 -71 77zM292 158h-56c-6 28 -25 48 -60 48c-74 0 -86 -75 -86 -122h2c13 21 46 36 84 36c84 0 128 -49 128 -119c0 -54 -33 -124 -135 -124c-120 0 -139 100 -139 177
c0 101 33 198 147 198c68 0 110 -35 115 -94zM42 577l37 196h202v-46h-162l-19 -91l1 -1c19 14 44 21 75 21c68 0 127 -45 127 -126c0 -68 -47 -126 -141 -126c-70 0 -127 39 -129 105h56c3 -38 32 -59 74 -59c47 0 78 25 78 80c0 50 -31 80 -80 80c-31 0 -57 -14 -76 -35z
M420 352v-48h-478v48h478z" />
    <glyph glyph-name="onethird.stacked" unicode="&#xe04a;" horiz-adv-x="362" 
d="M420 352v-48h-478v48h478zM213 779v-369h-56v263h-97v36c55 0 101 13 112 70h41zM140 50v50c8 -1 15 -1 21 -1c35 0 67 16 67 53c0 36 -21 54 -60 54c-49 0 -69 -30 -70 -73h-56c3 70 44 119 124 119c81 0 124 -38 124 -96c0 -36 -23 -63 -56 -76v-2c49 -9 73 -45 73 -89
c0 -74 -64 -112 -139 -112c-82 0 -137 44 -135 120h57c1 -46 27 -74 78 -74c46 0 77 25 77 65c0 47 -31 65 -76 65c-9 0 -20 -2 -29 -3z" />
    <glyph glyph-name="seveneighths.stacked" unicode="&#xe055;" horiz-adv-x="362" 
d="M167 -77c45 0 73 26 73 65c0 38 -28 66 -73 66s-74 -28 -74 -66c0 -39 29 -65 74 -65zM45 158c0 60 56 94 119 94c88 0 122 -48 122 -94c0 -33 -23 -63 -56 -76v-2c49 -13 72 -45 72 -91c0 -71 -59 -112 -134 -112c-77 0 -137 37 -137 112c0 44 25 78 70 91v2
c-33 12 -56 42 -56 76zM107 152c0 -31 21 -52 59 -52c37 0 58 21 58 52c0 29 -20 54 -58 54s-59 -25 -59 -54zM312 773v-40c-81 -72 -147 -208 -154 -323h-64c10 125 75 239 151 313h-194v50h261zM420 352v-48h-478v48h478z" />
    <glyph glyph-name="threeeighths.stacked" unicode="&#xe053;" horiz-adv-x="362" 
d="M167 -77c45 0 73 26 73 65c0 38 -28 66 -73 66s-74 -28 -74 -66c0 -39 29 -65 74 -65zM45 158c0 60 56 94 119 94c88 0 122 -48 122 -94c0 -33 -23 -63 -56 -76v-2c49 -13 72 -45 72 -91c0 -71 -59 -112 -134 -112c-77 0 -137 37 -137 112c0 44 25 78 70 91v2
c-33 12 -56 42 -56 76zM107 152c0 -31 21 -52 59 -52c37 0 58 21 58 52c0 29 -20 54 -58 54s-59 -25 -59 -54zM140 577v50c8 -1 15 -1 21 -1c35 0 67 16 67 53c0 36 -21 54 -60 54c-49 0 -69 -30 -70 -73h-56c3 70 44 119 124 119c81 0 124 -38 124 -96
c0 -36 -23 -63 -56 -76v-2c49 -9 73 -45 73 -89c0 -74 -64 -112 -139 -112c-82 0 -137 44 -135 120h57c1 -46 27 -74 78 -74c46 0 77 25 77 65c0 47 -31 65 -76 65c-9 0 -20 -2 -29 -3zM420 352v-48h-478v48h478z" />
    <glyph glyph-name="threequarters.stacked" unicode="&#xe049;" horiz-adv-x="362" 
d="M251 252v-239h55v-46h-55v-84h-56v84h-167v45l178 240h45zM82 13h113v150h-2zM140 577v50c8 -1 15 -1 21 -1c35 0 67 16 67 53c0 36 -21 54 -60 54c-49 0 -69 -30 -70 -73h-56c3 70 44 119 124 119c81 0 124 -38 124 -96c0 -36 -23 -63 -56 -76v-2c49 -9 73 -45 73 -89
c0 -74 -64 -112 -139 -112c-82 0 -137 44 -135 120h57c1 -46 27 -74 78 -74c46 0 77 25 77 65c0 47 -31 65 -76 65c-9 0 -20 -2 -29 -3zM420 352v-48h-478v48h478z" />
    <glyph glyph-name="twothirds.stacked" unicode="&#xe04b;" horiz-adv-x="362" 
d="M103 648h-56c-4 75 45 131 130 131c71 0 127 -38 127 -106c0 -65 -43 -100 -98 -132c-46 -27 -92 -46 -98 -81h192v-50h-264c6 93 56 126 109 156c68 38 97 58 97 107c0 33 -20 60 -64 60c-55 0 -77 -41 -75 -85zM140 50v50c8 -1 15 -1 21 -1c35 0 67 16 67 53
c0 36 -21 54 -60 54c-49 0 -69 -30 -70 -73h-56c3 70 44 119 124 119c81 0 124 -38 124 -96c0 -36 -23 -63 -56 -76v-2c49 -9 73 -45 73 -89c0 -74 -64 -112 -139 -112c-82 0 -137 44 -135 120h57c1 -46 27 -74 78 -74c46 0 77 25 77 65c0 47 -31 65 -76 65
c-9 0 -20 -2 -29 -3zM420 352v-48h-478v48h478z" />
  </font>
</defs>
</svg>
