<svg xmlns="http://www.w3.org/2000/svg" width="20" height="20" viewBox="0 0 20 20">
  <path id="star_1_" data-name="star (1)" d="M19.947,8.053a1.072,1.072,0,0,0-.914-.762L13.26,6.744,10.978,1.17a1.047,1.047,0,0,0-1.956,0L6.741,6.744.966,7.291a1.075,1.075,0,0,0-.914.762,1.142,1.142,0,0,0,.31,1.179l4.364,3.993L3.44,19.139a1.134,1.134,0,0,0,.413,1.145,1.024,1.024,0,0,0,1.168.054L10,17.233l4.977,3.106a1.026,1.026,0,0,0,1.169-.054,1.134,1.134,0,0,0,.413-1.145l-1.287-5.914,4.364-3.993A1.142,1.142,0,0,0,19.947,8.053ZM10.1,17.172" transform="translate(0 -0.496)" fill="#2ebfaf"/>
</svg>
