<svg xmlns="http://www.w3.org/2000/svg" width="18.529" height="21" viewBox="0 0 18.529 21">
  <g id="noun_Trash_1187625" transform="translate(-9.84 -5)">
    <g id="Group_116" data-name="Group 116" transform="translate(9.84 5)">
      <path id="Path_152" data-name="Path 152" d="M16.58,5a1.638,1.638,0,0,0-1.618,1.633v.7H10.57a.687.687,0,0,0-.072,0,.7.7,0,0,0,.072,1.4H25.35L24.9,24.345c0,.166-.091.255-.231.255h-11.1c-.14,0-.226-.089-.231-.255l-.4-13.993a.694.694,0,1,0-1.387.036l.4,13.993A1.659,1.659,0,0,0,13.575,26h11.1a1.659,1.659,0,0,0,1.618-1.619l.448-15.648h.939a.7.7,0,0,0,0-1.4H23.284v-.7A1.638,1.638,0,0,0,21.666,5Zm0,1.4h5.085a.218.218,0,0,1,.231.233v.7H16.349v-.7A.218.218,0,0,1,16.58,6.4Zm-.7,4.652a.69.69,0,0,0-.491.213.7.7,0,0,0-.2.5v9.8a.694.694,0,1,0,1.387,0v-9.8a.7.7,0,0,0-.2-.507A.69.69,0,0,0,15.879,11.052Zm3.236,0a.69.69,0,0,0-.491.213.7.7,0,0,0-.2.5v9.8a.694.694,0,1,0,1.387,0v-9.8a.7.7,0,0,0-.2-.507A.69.69,0,0,0,19.116,11.052Zm3.236,0a.69.69,0,0,0-.491.213.7.7,0,0,0-.2.5v9.8a.694.694,0,1,0,1.387,0v-9.8a.7.7,0,0,0-.2-.507A.69.69,0,0,0,22.352,11.052Z" transform="translate(-9.84 -5)"/>
    </g>
  </g>
</svg>
