<svg xmlns="http://www.w3.org/2000/svg" width="16" height="8" viewBox="0 0 16 8">
  <path id="Path_8" data-name="Path 8" d="M5.059,14.746c0,.383.252.4.252.4h.848c.349,0,.33-.465.33-.465V10.359c0-.4-.311-.4-.311-.4H5.35c-.29,0-.29.333-.29.333Zm.715-7.483a.745.745,0,0,0-.753.817.745.745,0,0,0,.743.806.762.762,0,0,0,.771-.806A.763.763,0,0,0,5.774,7.263Zm9.19,4.829c0-1.548-.668-2.248-1.552-2.248a1.517,1.517,0,0,0-.875.255,2.182,2.182,0,0,0-.593.626h-.019a1.3,1.3,0,0,0-1.26-.88,1.565,1.565,0,0,0-1.392.817H9.245l-.037-.389s-.051-.311-.333-.311h-.6a.292.292,0,0,0-.291.313s.026.836.026,1.342v2.979s0,.552.458.552h.616c.368,0,.318-.552.318-.552v-2.47a1.193,1.193,0,0,1,.056-.4.752.752,0,0,1,.668-.583c.451,0,.658.445.658,1.1v2.353c0,.521.361.552.361.552h.636c.4,0,.4-.509.4-.509V12.113a1.508,1.508,0,0,1,.056-.414.718.718,0,0,1,.658-.562c.461,0,.677.435.677,1.188V14.55s-.073.6.292.6h.771s.329-.037.329-.552ZM18.67,9.844a2.452,2.452,0,0,0-2.455,2.747,2.4,2.4,0,0,0,2.38,2.672,2.46,2.46,0,0,0,2.427-2.768A2.392,2.392,0,0,0,18.67,9.844Zm-.038,4.263c-.611,0-.941-.668-.941-1.559,0-.764.254-1.559.941-1.559.649,0,.912.785.912,1.559C19.545,13.481,19.187,14.107,18.632,14.107Z" transform="translate(-5.021 -7.263)" fill="#fff" fill-rule="evenodd"/>
</svg>
