<svg xmlns="http://www.w3.org/2000/svg" width="14" height="14" viewBox="0 0 14 14">
  <g id="instagram" transform="translate(-0.449 0)">
    <path id="Path_2" data-name="Path 2" d="M14.413,4.116a5.115,5.115,0,0,0-.325-1.7A3.587,3.587,0,0,0,12.039.369a5.131,5.131,0,0,0-1.7-.325C9.59.008,9.352,0,7.451,0S5.312.008,4.565.041a5.119,5.119,0,0,0-1.7.325,3.417,3.417,0,0,0-1.242.81A3.447,3.447,0,0,0,.818,2.415a5.128,5.128,0,0,0-.325,1.7C.457,4.863.449,5.1.449,7S.457,9.14.49,9.887a5.115,5.115,0,0,0,.326,1.7,3.586,3.586,0,0,0,2.049,2.048,5.131,5.131,0,0,0,1.7.325c.747.033.985.041,2.886.041s2.139-.008,2.886-.041a5.116,5.116,0,0,0,1.7-.325,3.581,3.581,0,0,0,2.049-2.048,5.132,5.132,0,0,0,.325-1.7c.033-.747.041-.985.041-2.885s0-2.139-.036-2.885ZM13.152,9.832a3.837,3.837,0,0,1-.241,1.3,2.323,2.323,0,0,1-1.329,1.329,3.852,3.852,0,0,1-1.3.241c-.739.033-.96.041-2.828.041s-2.093-.008-2.828-.041a3.837,3.837,0,0,1-1.3-.241,2.155,2.155,0,0,1-.8-.522,2.177,2.177,0,0,1-.523-.8,3.851,3.851,0,0,1-.241-1.3c-.033-.738-.041-.96-.041-2.828s.008-2.092.041-2.828A3.835,3.835,0,0,1,2,2.88a2.128,2.128,0,0,1,.525-.8,2.174,2.174,0,0,1,.8-.522,3.855,3.855,0,0,1,1.3-.241c.739-.033.96-.041,2.828-.041s2.093.008,2.828.041a3.839,3.839,0,0,1,1.3.241,2.153,2.153,0,0,1,.8.522,2.176,2.176,0,0,1,.523.8,3.852,3.852,0,0,1,.241,1.3c.033.738.041.96.041,2.828s-.008,2.087-.041,2.825Zm0,0" fill="#fff"/>
    <path id="Path_3" data-name="Path 3" d="M128.536,124.5a3.585,3.585,0,1,0,3.587,3.585A3.587,3.587,0,0,0,128.536,124.5Zm0,5.911a2.326,2.326,0,1,1,2.327-2.326A2.327,2.327,0,0,1,128.536,130.411Zm0,0" transform="translate(-121.085 -121.084)" fill="#fff"/>
    <path id="Path_4" data-name="Path 4" d="M364.134,89.444a.842.842,0,1,1-.842-.842A.842.842,0,0,1,364.134,89.444Zm0,0" transform="translate(-352.103 -86.18)" fill="#fff"/>
  </g>
</svg>
