<svg xmlns="http://www.w3.org/2000/svg" width="29.31" height="30" viewBox="0 0 29.31 30">
  <path id="star_1_" data-name="star (1)" d="M29.233,11.831a1.581,1.581,0,0,0-1.34-1.143l-8.461-.82L16.089,1.507a1.521,1.521,0,0,0-2.866,0L9.879,9.868l-8.462.82a1.586,1.586,0,0,0-1.34,1.143A1.741,1.741,0,0,0,.531,13.6l6.4,5.99L5.041,28.461a1.722,1.722,0,0,0,.606,1.718,1.473,1.473,0,0,0,1.712.081l7.3-4.659,7.295,4.659a1.475,1.475,0,0,0,1.714-.081,1.722,1.722,0,0,0,.606-1.718L22.383,19.59l6.4-5.99A1.74,1.74,0,0,0,29.233,11.831ZM14.8,25.511" transform="translate(0 -0.496)" fill="#2ebfaf"/>
</svg>
