<svg xmlns="http://www.w3.org/2000/svg" width="8.486" height="8.486" viewBox="0 0 8.486 8.486">
  <g id="Arrow_down" data-name="Arrow down" transform="translate(0 4.243) rotate(-45)" fill="#fff">
    <path d="M.5,6A.5.5,0,0,1,0,5.5V.5a.5.5,0,1,1,1,0V5H5.5a.5.5,0,1,1,0,1Z" stroke="none"/>
    <path d="M 5.499899864196777 6.00029993057251 L 0.5003999471664429 6.00029993057251 C 0.2240999639034271 6.00029993057251 -3.471374654395731e-08 5.776199817657471 -3.471374654395731e-08 5.499899864196777 L -3.471374654395731e-08 0.5003999471664429 C -3.471374654395731e-08 0.2240999639034271 0.2240999639034271 -3.471374654395731e-08 0.5003999471664429 -3.471374654395731e-08 C 0.7757999897003174 -3.471374654395731e-08 0.9998999834060669 0.2240999639034271 0.9998999834060669 0.5003999471664429 L 0.9998999834060669 5.000400066375732 L 5.499899864196777 5.000400066375732 C 5.776199817657471 5.000400066375732 6.00029993057251 5.224500179290771 6.00029993057251 5.499899864196777 C 6.00029993057251 5.776199817657471 5.776199817657471 6.00029993057251 5.499899864196777 6.00029993057251 Z" stroke="none" fill="#000"/>
  </g>
</svg>
