<svg xmlns="http://www.w3.org/2000/svg" width="20.506" height="20.5" viewBox="0 0 20.506 20.5">
  <g id="Icon_cart_" data-name="Icon (cart)" transform="translate(0.25 -5.778)">
    <g id="Group_85" data-name="Group 85" transform="translate(0 6.028)">
      <g id="Group_84" data-name="Group 84" transform="translate(0 0)">
        <path id="Path_288" data-name="Path 288" d="M98.894,350.322a2.241,2.241,0,1,0,2.241,2.241A2.241,2.241,0,0,0,98.894,350.322Zm0,3.486a1.245,1.245,0,1,1,1.245-1.245A1.245,1.245,0,0,1,98.894,353.808Z" transform="translate(-92.444 -334.804)" fill="#2ebfaf" stroke="#2ebfaf" stroke-width="0.5"/>
        <path id="Path_289" data-name="Path 289" d="M297.425,350.322a2.241,2.241,0,1,0,2.241,2.241A2.241,2.241,0,0,0,297.425,350.322Zm0,3.486a1.245,1.245,0,1,1,1.245-1.245A1.245,1.245,0,0,1,297.425,353.808Z" transform="translate(-282.581 -334.804)" fill="#2ebfaf" stroke="#2ebfaf" stroke-width="0.5"/>
        <path id="Path_290" data-name="Path 290" d="M19.905,9.169a.578.578,0,0,0-.371-.188L4.431,8.77,4.014,7.481a2.136,2.136,0,0,0-2-1.453H.464a.469.469,0,0,0,0,.938H2.018a1.208,1.208,0,0,1,1.114.82l2.946,8.977-.232.539a2.27,2.27,0,0,0,.209,2.039,2.153,2.153,0,0,0,1.74.984H16.82a.469.469,0,0,0,0-.938H7.8a1.181,1.181,0,0,1-.974-.563A1.3,1.3,0,0,1,6.7,17.7l.186-.422,9.767-1.031a2.561,2.561,0,0,0,2.2-1.969l1.114-4.711A.4.4,0,0,0,19.905,9.169Zm-1.949,4.9a1.583,1.583,0,0,1-1.415,1.242L6.89,16.318,4.733,9.708l14.221.211Z" transform="translate(0 -6.028)" fill="#2ebfaf" stroke="#2ebfaf" stroke-width="0.5"/>
      </g>
    </g>
  </g>
</svg>
