<svg xmlns="http://www.w3.org/2000/svg" width="22.5" height="20.5" viewBox="0 0 22.5 20.5">
  <g id="icon_heart_" data-name="icon (heart)" transform="translate(0.25 -29.586)">
    <g id="Group_87" data-name="Group 87" transform="translate(0 29.836)">
      <path id="Path_291" data-name="Path 291" d="M20.395,31.8a5.45,5.45,0,0,0-8.847.655,8.729,8.729,0,0,0-.548.914,8.721,8.721,0,0,0-.548-.914,5.556,5.556,0,0,0-4.609-2.62A5.508,5.508,0,0,0,1.605,31.8,6.982,6.982,0,0,0,0,36.358a8.532,8.532,0,0,0,2.249,5.514,50.687,50.687,0,0,0,5.629,5.412c.851.747,1.732,1.519,2.669,2.362l.028.025a.631.631,0,0,0,.849,0l.028-.025c.937-.844,1.818-1.616,2.669-2.362a50.68,50.68,0,0,0,5.629-5.412A8.532,8.532,0,0,0,22,36.358,6.982,6.982,0,0,0,20.395,31.8ZM13.286,46.274c-.734.644-1.489,1.306-2.286,2.018-.8-.712-1.552-1.375-2.286-2.018-4.471-3.921-7.425-6.511-7.425-9.916a5.636,5.636,0,0,1,1.283-3.681,4.251,4.251,0,0,1,3.272-1.515A4.325,4.325,0,0,1,9.4,33.223a7.96,7.96,0,0,1,.987,2.019.639.639,0,0,0,1.226,0,7.961,7.961,0,0,1,.987-2.019,4.325,4.325,0,0,1,3.557-2.06,4.251,4.251,0,0,1,3.272,1.515,5.636,5.636,0,0,1,1.283,3.681C20.711,39.763,17.757,42.354,13.286,46.274Z" transform="translate(0 -29.836)" fill="#2ebfaf" stroke="#2ebfaf" stroke-width="0.5"/>
    </g>
  </g>
</svg>
