<svg xmlns="http://www.w3.org/2000/svg" width="22" height="20" viewBox="0 0 22 20">
  <g id="icon_box_" data-name="icon (box)" transform="translate(0 -15.499)">
    <g id="Group_88" data-name="Group 88" transform="translate(0 15.499)">
      <path id="Path_320" data-name="Path 320" d="M19.513,22.36l2.376-3.392a.606.606,0,0,0,.077-.551.635.635,0,0,0-.407-.391l-7.777-2.495a.656.656,0,0,0-.739.246L11,18.741,8.959,15.777a.656.656,0,0,0-.739-.246L.442,18.026a.635.635,0,0,0-.407.391.607.607,0,0,0,.077.551L2.487,22.36.111,25.752a.607.607,0,0,0-.077.551.635.635,0,0,0,.407.391l2.179.7v4.987a.626.626,0,0,0,.441.592l7.732,2.494a.665.665,0,0,0,.413,0l7.732-2.494a.626.626,0,0,0,.441-.592V27.393l2.179-.7a.635.635,0,0,0,.407-.391.607.607,0,0,0-.077-.551Zm-5.671-5.5,6.5,2.086-1.869,2.668L12,19.532ZM1.657,18.95l6.5-2.086L10,19.532l-6.47,2.087Zm0,6.819L3.526,23.1,10,25.188,8.159,27.855Zm8.7,8.241L3.911,31.931V27.807L8.22,29.189a.656.656,0,0,0,.739-.246l1.4-2.028ZM11,24.2,5.3,22.36,11,20.522l5.7,1.837Zm7.09,7.734L11.645,34.01v-7.1l1.4,2.028a.656.656,0,0,0,.739.246l4.309-1.382Zm-4.248-4.076L12,25.188l6.47-2.087,1.869,2.668Z" transform="translate(0 -15.499)" fill="#2ebfaf"/>
    </g>
  </g>
</svg>
