<svg xmlns="http://www.w3.org/2000/svg" width="12" height="14" viewBox="0 0 12 14">
  <g id="Icon_user_" data-name="Icon (user)" transform="translate(0 0)">
    <path id="Path_294" data-name="Path 294" d="M90.57,6.727a3.515,3.515,0,0,0,2.5-.985,3.176,3.176,0,0,0,1.036-2.378A3.176,3.176,0,0,0,93.071.985a3.668,3.668,0,0,0-5,0,3.176,3.176,0,0,0-1.037,2.378,3.176,3.176,0,0,0,1.037,2.378A3.516,3.516,0,0,0,90.57,6.727ZM88.677,1.564a2.775,2.775,0,0,1,3.786,0,2.373,2.373,0,0,1,.784,1.8,2.373,2.373,0,0,1-.784,1.8,2.775,2.775,0,0,1-3.786,0,2.373,2.373,0,0,1-.785-1.8,2.373,2.373,0,0,1,.785-1.8Zm0,0" transform="translate(-84.658 0)" fill="#2ebfaf"/>
    <path id="Path_295" data-name="Path 295" d="M11.971,251.309a8.079,8.079,0,0,0-.117-.882,6.786,6.786,0,0,0-.224-.887,4.319,4.319,0,0,0-.376-.827,3.131,3.131,0,0,0-.566-.717,2.51,2.51,0,0,0-.814-.5,2.887,2.887,0,0,0-1.039-.182,1.072,1.072,0,0,0-.563.232c-.169.107-.366.23-.587.367a3.414,3.414,0,0,1-.759.325,3.031,3.031,0,0,1-1.857,0,3.4,3.4,0,0,1-.758-.325c-.218-.135-.416-.259-.587-.367a1.071,1.071,0,0,0-.563-.232,2.883,2.883,0,0,0-1.039.183,2.507,2.507,0,0,0-.814.5,3.132,3.132,0,0,0-.566.717,4.326,4.326,0,0,0-.376.828,6.8,6.8,0,0,0-.223.887,8.025,8.025,0,0,0-.117.883c-.019.267-.029.544-.029.825a2.284,2.284,0,0,0,.709,1.754,2.6,2.6,0,0,0,1.828.647H9.463a2.6,2.6,0,0,0,1.828-.647A2.283,2.283,0,0,0,12,252.134c0-.281-.01-.559-.029-.825ZM10.709,253.3a1.75,1.75,0,0,1-1.247.422H2.537A1.75,1.75,0,0,1,1.29,253.3a1.49,1.49,0,0,1-.448-1.162c0-.262.009-.52.027-.768a7.237,7.237,0,0,1,.105-.795,6,6,0,0,1,.2-.782,3.522,3.522,0,0,1,.306-.673,2.322,2.322,0,0,1,.416-.53,1.665,1.665,0,0,1,.541-.327,1.991,1.991,0,0,1,.664-.124c.03.015.082.044.167.1.173.11.373.235.594.372a4.236,4.236,0,0,0,.953.413,3.9,3.9,0,0,0,2.375,0,4.243,4.243,0,0,0,.953-.414c.226-.14.42-.262.593-.371.085-.054.138-.083.167-.1a1.992,1.992,0,0,1,.664.124,1.667,1.667,0,0,1,.541.327,2.315,2.315,0,0,1,.416.53,3.512,3.512,0,0,1,.306.673,5.984,5.984,0,0,1,.2.782,7.3,7.3,0,0,1,.105.795h0c.018.247.027.505.027.768a1.49,1.49,0,0,1-.448,1.161Zm0,0" transform="translate(0 -240.535)" fill="#2ebfaf"/>
  </g>
</svg>
